#N canvas 73 22 1195 752 10;
#N canvas 490 22 1207 752 SuperPolyClock 0;
#X obj 430 389 metro;
#X obj 398 434 f;
#X obj 424 434 + 1;
#X obj 108 133 hsl 128 15 300 1200 0 0 empty empty speed -2 -8 0 10
-262144 -1 -1 3800 1;
#X floatatom 430 481 5 0 0 0 - - -, f 5;
#X obj 430 460 %;
#X obj 430 409 bng 15 250 50 0 empty empty empty 17 7 0 10 -262144
-1 -1;
#X floatatom 503 476 5 0 0 0 - - -, f 5;
#X obj 340 110 bng 15 250 50 0 empty empty set 17 7 0 10 -262144 -1
-1;
#X floatatom 205 284 5 0 0 0 - - -, f 5;
#X msg 147 352 60000;
#X obj 139 377 /;
#X floatatom 254 133 5 0 0 1 BPM - -, f 5;
#X floatatom 435 363 5 0 0 0 - - -, f 5;
#X obj 415 313 /;
#X obj 161 329 bng 15 250 50 0 empty empty empty 17 7 0 10 -262144
-1 -1;
#X obj 287 110 bng 15 250 50 0 empty empty start 17 7 0 10 -262144
-1 -1;
#X msg 585 354 stop;
#X obj 237 110 bng 15 250 50 0 empty empty stop 17 7 0 10 -262144 -1
-1;
#X msg 393 245 -1;
#X obj 425 339 * 4;
#N canvas 20 63 557 529 PolyLine 0;
#X obj 157 106 %;
#X obj 137 171 spigot;
#X obj 157 151 tgl 15 0 empty empty empty 17 7 0 10 -262144 -1 -1 0
1;
#X obj 139 151 bng 15 250 50 0 empty empty empty 17 7 0 10 -262144
-1 -1;
#X obj 138 193 bng 15 250 50 0 empty empty empty 17 7 0 10 -262144
-1 -1;
#X obj 157 128 == 0;
#X floatatom 126 262 5 0 0 0 - - -, f 5;
#X obj 127 213 f;
#X obj 153 214 + 1;
#X obj 127 239 %;
#X obj 186 88 /;
#X floatatom 184 108 5 0 0 0 - - -, f 5;
#X floatatom 244 58 5 0 0 0 - - -, f 5;
#X obj 128 285 outlet;
#X obj 201 5 inlet;
#X obj 25 4 inlet;
#X obj 107 4 inlet;
#X obj 68 4 inlet;
#X connect 0 0 5 0;
#X connect 1 0 4 0;
#X connect 2 0 1 1;
#X connect 3 0 1 0;
#X connect 4 0 7 0;
#X connect 5 0 2 0;
#X connect 6 0 13 0;
#X connect 7 0 8 0;
#X connect 7 0 9 0;
#X connect 8 0 7 1;
#X connect 9 0 6 0;
#X connect 10 0 11 0;
#X connect 11 0 0 1;
#X connect 12 0 9 1;
#X connect 12 0 10 1;
#X connect 14 0 12 0;
#X connect 15 0 7 0;
#X connect 16 0 10 0;
#X connect 17 0 0 0;
#X connect 17 0 3 0;
#X restore 191 809 pd PolyLine;
#X msg 201 639 1;
#X obj 204 618 bng 15 250 50 0 empty empty empty 17 7 0 10 -262144
-1 -1;
#X obj 288 619 bng 15 250 50 0 empty empty empty 17 7 0 10 -262144
-1 -1;
#X obj 392 211 trigger b b b b;
#X obj 341 268 s PLL1;
#X obj 430 499 s PLL2;
#X obj 503 501 s PLL3;
#X floatatom 1119 866 5 0 0 0 - - -, f 5;
#N canvas 752 38 968 610 clckdvdr 0;
#X obj 154 580 outlet;
#X obj 199 580 outlet;
#X obj 246 580 outlet;
#X obj 292 580 outlet;
#X obj 478 580 outlet;
#X obj 338 580 outlet;
#X obj 385 580 outlet;
#X obj 431 580 outlet;
#X obj 119 140 f;
#X floatatom 231 240 5 0 0 0 - - -, f 5;
#X obj 170 135 + 1;
#X obj 291 346 - 1;
#X obj 274 423 tgl 15 0 empty empty empty 17 7 0 10 -262144 -1 -1 0
1;
#X obj 275 391 >=;
#X obj 280 204 % 2;
#X obj 252 465 spigot;
#X obj 258 509 bng 15 250 50 0 empty empty empty 17 7 0 10 -262144
-1 -1;
#X obj 236 509 bng 15 250 50 0 empty empty empty 17 7 0 10 -262144
-1 -1;
#X floatatom 268 240 5 0 0 0 - - -, f 5;
#X obj 325 346 - 1;
#X obj 318 423 tgl 15 0 empty empty empty 17 7 0 10 -262144 -1 -1 0
1;
#X obj 315 391 >=;
#X obj 309 204 % 2;
#X obj 296 465 spigot;
#X obj 280 509 bng 15 250 50 0 empty empty empty 17 7 0 10 -262144
-1 -1;
#X msg 718 130 3;
#X floatatom 306 240 5 0 0 0 - - -, f 5;
#X obj 367 346 - 1;
#X obj 362 423 tgl 15 0 empty empty empty 17 7 0 10 -262144 -1 -1 0
1;
#X obj 362 391 >=;
#X obj 338 204 % 2;
#X obj 341 465 spigot;
#X obj 303 509 bng 15 250 50 0 empty empty empty 17 7 0 10 -262144
-1 -1;
#X floatatom 344 240 5 0 0 0 - - -, f 5;
#X obj 409 346 - 1;
#X obj 401 423 tgl 15 0 empty empty empty 17 7 0 10 -262144 -1 -1 0
1;
#X obj 399 391 >=;
#X obj 367 204 % 2;
#X obj 385 465 spigot;
#X obj 327 509 bng 15 250 50 0 empty empty empty 17 7 0 10 -262144
-1 -1;
#X floatatom 386 240 5 0 0 0 - - -, f 5;
#X obj 453 346 - 1;
#X obj 453 423 tgl 15 0 empty empty empty 17 7 0 10 -262144 -1 -1 0
1;
#X obj 446 391 >=;
#X obj 396 204 % 2;
#X obj 430 465 spigot;
#X obj 348 509 bng 15 250 50 0 empty empty empty 17 7 0 10 -262144
-1 -1;
#X floatatom 428 240 5 0 0 0 - - -, f 5;
#X obj 493 346 - 1;
#X obj 494 423 tgl 15 0 empty empty empty 17 7 0 10 -262144 -1 -1 0
1;
#X obj 487 391 >=;
#X obj 424 204 % 2;
#X obj 475 465 spigot;
#X obj 374 509 bng 15 250 50 0 empty empty empty 17 7 0 10 -262144
-1 -1;
#X floatatom 469 240 5 0 0 0 - - -, f 5;
#X obj 545 346 - 1;
#X obj 536 423 tgl 15 0 empty empty empty 17 7 0 10 -262144 -1 -1 0
1;
#X obj 535 391 >=;
#X obj 453 204 % 2;
#X obj 520 465 spigot;
#X obj 398 509 bng 15 250 50 0 empty empty empty 17 7 0 10 -262144
-1 -1;
#X obj 285 18 loadbang;
#X msg 689 130 2;
#X msg 749 130 4;
#X msg 782 130 5;
#X msg 813 130 6;
#X msg 845 130 7;
#X msg 876 130 8;
#X obj 102 103 bng 15 250 50 0 empty empty empty 17 7 0 10 -262144
-1 -1;
#X obj 84 44 inlet;
#X obj 690 405 f;
#X obj 722 405 + 1;
#X obj 687 369 bng 15 250 50 0 empty empty empty 17 7 0 10 -262144
-1 -1;
#X obj 656 450 % 2;
#X obj 704 453 % 4;
#X obj 665 474 >= 2;
#X obj 713 476 >= 4;
#X obj 665 498 tgl 15 0 empty empty empty 17 7 0 10 -262144 -1 -1 0
1;
#X obj 713 498 tgl 15 0 empty empty empty 17 7 0 10 -262144 -1 -1 0
1;
#X obj 656 520 spigot;
#X obj 704 520 spigot;
#X obj 656 543 bng 15 250 50 0 empty empty empty 17 7 0 10 -262144
-1 -1;
#X obj 704 543 bng 15 250 50 0 empty empty empty 17 7 0 10 -262144
-1 -1;
#X connect 8 0 10 0;
#X connect 8 0 17 0;
#X connect 8 0 14 0;
#X connect 8 0 22 0;
#X connect 8 0 30 0;
#X connect 8 0 37 0;
#X connect 8 0 44 0;
#X connect 8 0 51 0;
#X connect 8 0 58 0;
#X connect 9 0 13 0;
#X connect 9 0 15 0;
#X connect 10 0 8 1;
#X connect 11 0 13 1;
#X connect 12 0 15 1;
#X connect 13 0 12 0;
#X connect 14 0 9 0;
#X connect 15 0 16 0;
#X connect 16 0 1 0;
#X connect 18 0 21 0;
#X connect 18 0 23 0;
#X connect 19 0 21 1;
#X connect 20 0 23 1;
#X connect 21 0 20 0;
#X connect 22 0 18 0;
#X connect 23 0 24 0;
#X connect 24 0 2 0;
#X connect 25 0 19 0;
#X connect 25 0 22 1;
#X connect 26 0 29 0;
#X connect 26 0 31 0;
#X connect 27 0 29 1;
#X connect 28 0 31 1;
#X connect 29 0 28 0;
#X connect 30 0 26 0;
#X connect 31 0 32 0;
#X connect 32 0 3 0;
#X connect 33 0 36 0;
#X connect 33 0 38 0;
#X connect 34 0 36 1;
#X connect 35 0 38 1;
#X connect 36 0 35 0;
#X connect 37 0 33 0;
#X connect 38 0 39 0;
#X connect 39 0 5 0;
#X connect 40 0 43 0;
#X connect 40 0 45 0;
#X connect 41 0 43 1;
#X connect 42 0 45 1;
#X connect 43 0 42 0;
#X connect 44 0 40 0;
#X connect 45 0 46 0;
#X connect 46 0 6 0;
#X connect 47 0 50 0;
#X connect 47 0 52 0;
#X connect 48 0 50 1;
#X connect 49 0 52 1;
#X connect 50 0 49 0;
#X connect 51 0 47 0;
#X connect 52 0 53 0;
#X connect 53 0 7 0;
#X connect 54 0 57 0;
#X connect 54 0 59 0;
#X connect 55 0 57 1;
#X connect 56 0 59 1;
#X connect 57 0 56 0;
#X connect 58 0 54 0;
#X connect 59 0 60 0;
#X connect 60 0 4 0;
#X connect 61 0 62 0;
#X connect 61 0 25 0;
#X connect 61 0 63 0;
#X connect 61 0 64 0;
#X connect 61 0 65 0;
#X connect 61 0 66 0;
#X connect 61 0 67 0;
#X connect 62 0 11 0;
#X connect 62 0 14 1;
#X connect 63 0 27 0;
#X connect 63 0 30 1;
#X connect 64 0 34 0;
#X connect 64 0 37 1;
#X connect 65 0 41 0;
#X connect 65 0 44 1;
#X connect 66 0 48 0;
#X connect 66 0 51 1;
#X connect 67 0 55 0;
#X connect 67 0 58 1;
#X connect 68 0 8 0;
#X connect 68 0 0 0;
#X connect 69 0 68 0;
#X connect 70 0 71 0;
#X connect 70 0 73 0;
#X connect 70 0 74 0;
#X connect 71 0 70 1;
#X connect 72 0 70 0;
#X connect 73 0 75 0;
#X connect 73 0 79 0;
#X connect 74 0 76 0;
#X connect 74 0 80 0;
#X connect 75 0 77 0;
#X connect 76 0 78 0;
#X connect 77 0 79 1;
#X connect 78 0 80 1;
#X connect 79 0 81 0;
#X connect 80 0 82 0;
#X restore 1114 213 pd clckdvdr;
#X obj 1086 242 bng 15 250 50 0 empty empty empty 17 7 0 10 -262144
-1 -1;
#X obj 1105 242 bng 15 250 50 0 empty empty empty 17 7 0 10 -262144
-1 -1;
#X obj 1123 243 bng 15 250 50 0 empty empty empty 17 7 0 10 -262144
-1 -1;
#X obj 1144 242 bng 15 250 50 0 empty empty empty 17 7 0 10 -262144
-1 -1;
#X obj 1163 242 bng 15 250 50 0 empty empty empty 17 7 0 10 -262144
-1 -1;
#X obj 1182 242 bng 15 250 50 0 empty empty empty 17 7 0 10 -262144
-1 -1;
#X obj 1201 242 bng 15 250 50 0 empty empty empty 17 7 0 10 -262144
-1 -1;
#X obj 1220 242 bng 15 250 50 0 empty empty empty 17 7 0 10 -262144
-1 -1;
#N canvas 20 63 557 529 PolyLine 0;
#X obj 157 106 %;
#X obj 137 171 spigot;
#X obj 157 151 tgl 15 0 empty empty empty 17 7 0 10 -262144 -1 -1 0
1;
#X obj 139 151 bng 15 250 50 0 empty empty empty 17 7 0 10 -262144
-1 -1;
#X obj 138 193 bng 15 250 50 0 empty empty empty 17 7 0 10 -262144
-1 -1;
#X obj 157 128 == 0;
#X floatatom 126 262 5 0 0 0 - - -, f 5;
#X obj 127 213 f;
#X obj 153 214 + 1;
#X obj 127 239 %;
#X obj 186 88 /;
#X floatatom 184 108 5 0 0 0 - - -, f 5;
#X floatatom 244 58 5 0 0 0 - - -, f 5;
#X obj 128 285 outlet;
#X obj 201 5 inlet;
#X obj 25 4 inlet;
#X obj 107 4 inlet;
#X obj 68 4 inlet;
#X connect 0 0 5 0;
#X connect 1 0 4 0;
#X connect 2 0 1 1;
#X connect 3 0 1 0;
#X connect 4 0 7 0;
#X connect 5 0 2 0;
#X connect 6 0 13 0;
#X connect 7 0 8 0;
#X connect 7 0 9 0;
#X connect 8 0 7 1;
#X connect 9 0 6 0;
#X connect 10 0 11 0;
#X connect 11 0 0 1;
#X connect 12 0 9 1;
#X connect 12 0 10 1;
#X connect 14 0 12 0;
#X connect 15 0 7 0;
#X connect 16 0 10 0;
#X connect 17 0 0 0;
#X connect 17 0 3 0;
#X restore 300 809 pd PolyLine;
#X floatatom 966 868 5 0 0 0 - - -, f 5;
#N canvas 20 63 557 529 PolyLine 0;
#X obj 157 106 %;
#X obj 137 171 spigot;
#X obj 157 151 tgl 15 0 empty empty empty 17 7 0 10 -262144 -1 -1 0
1;
#X obj 139 151 bng 15 250 50 0 empty empty empty 17 7 0 10 -262144
-1 -1;
#X obj 138 193 bng 15 250 50 0 empty empty empty 17 7 0 10 -262144
-1 -1;
#X obj 157 128 == 0;
#X floatatom 126 262 5 0 0 0 - - -, f 5;
#X obj 127 213 f;
#X obj 153 214 + 1;
#X obj 127 239 %;
#X obj 186 88 /;
#X floatatom 184 108 5 0 0 0 - - -, f 5;
#X floatatom 244 58 5 0 0 0 - - -, f 5;
#X obj 128 285 outlet;
#X obj 201 5 inlet;
#X obj 25 4 inlet;
#X obj 107 4 inlet;
#X obj 68 4 inlet;
#X connect 0 0 5 0;
#X connect 1 0 4 0;
#X connect 2 0 1 1;
#X connect 3 0 1 0;
#X connect 4 0 7 0;
#X connect 5 0 2 0;
#X connect 6 0 13 0;
#X connect 7 0 8 0;
#X connect 7 0 9 0;
#X connect 8 0 7 1;
#X connect 9 0 6 0;
#X connect 10 0 11 0;
#X connect 11 0 0 1;
#X connect 12 0 9 1;
#X connect 12 0 10 1;
#X connect 14 0 12 0;
#X connect 15 0 7 0;
#X connect 16 0 10 0;
#X connect 17 0 0 0;
#X connect 17 0 3 0;
#X restore 431 805 pd PolyLine;
#X floatatom 1066 870 5 0 0 0 - - -, f 5;
#N canvas 20 63 557 529 PolyLine 0;
#X obj 157 106 %;
#X obj 137 171 spigot;
#X obj 157 151 tgl 15 0 empty empty empty 17 7 0 10 -262144 -1 -1 1
1;
#X obj 139 151 bng 15 250 50 0 empty empty empty 17 7 0 10 -262144
-1 -1;
#X obj 138 193 bng 15 250 50 0 empty empty empty 17 7 0 10 -262144
-1 -1;
#X obj 157 128 == 0;
#X floatatom 126 262 5 0 0 0 - - -, f 5;
#X obj 127 213 f;
#X obj 153 214 + 1;
#X obj 127 239 %;
#X obj 186 88 /;
#X floatatom 184 108 5 0 0 0 - - -, f 5;
#X floatatom 244 58 5 0 0 0 - - -, f 5;
#X obj 128 285 outlet;
#X obj 201 5 inlet;
#X obj 25 4 inlet;
#X obj 107 4 inlet;
#X obj 68 4 inlet;
#X connect 0 0 5 0;
#X connect 1 0 4 0;
#X connect 2 0 1 1;
#X connect 3 0 1 0;
#X connect 4 0 7 0;
#X connect 5 0 2 0;
#X connect 6 0 13 0;
#X connect 7 0 8 0;
#X connect 7 0 9 0;
#X connect 8 0 7 1;
#X connect 9 0 6 0;
#X connect 10 0 11 0;
#X connect 11 0 0 1;
#X connect 12 0 9 1;
#X connect 12 0 10 1;
#X connect 14 0 12 0;
#X connect 15 0 7 0;
#X connect 16 0 10 0;
#X connect 17 0 0 0;
#X connect 17 0 3 0;
#X restore 1491 773 pd PolyLine;
#X obj 1466 718 r PLL1;
#X obj 1487 736 r PLL2;
#X obj 1509 754 r PLL3;
#X obj 1460 836 bng 15 250 50 0 empty empty empty 17 7 0 10 -262144
-1 -1;
#X floatatom 1487 806 5 0 0 0 - - -, f 5;
#X obj 386 408 r PLL1;
#X obj 294 260 s LFCS;
#X obj 1026 718 tgl 15 0 empty empty empty 17 7 0 10 -262144 -1 -1
0 1;
#X obj 1017 740 spigot;
#X obj 1017 762 bng 15 250 50 0 empty empty empty 17 7 0 10 -262144
-1 -1;
#X obj 1017 782 f;
#X obj 1049 782 + 1;
#X floatatom 1017 827 5 0 0 0 - - -, f 5;
#X obj 1275 727 tgl 15 0 empty empty empty 17 7 0 10 -262144 -1 -1
0 1;
#X obj 1266 749 spigot;
#X obj 1266 768 bng 15 250 50 0 empty empty empty 17 7 0 10 -262144
-1 -1;
#X obj 1266 788 f;
#X obj 1298 788 + 1;
#X floatatom 1266 836 5 0 0 0 - - -, f 5;
#X obj 1362 723 tgl 15 0 empty empty empty 17 7 0 10 -262144 -1 -1
1 1;
#X obj 1353 745 spigot;
#X obj 1353 767 bng 15 250 50 0 empty empty empty 17 7 0 10 -262144
-1 -1;
#X obj 1353 787 f;
#X obj 1385 787 + 1;
#X floatatom 1353 836 5 0 0 0 - - -, f 5;
#X obj 585 722 tgl 15 0 empty empty empty 17 7 0 10 -262144 -1 -1 0
1;
#X obj 576 744 spigot;
#X obj 576 769 bng 15 250 50 0 empty empty empty 17 7 0 10 -262144
-1 -1;
#X obj 576 789 f;
#X obj 608 789 + 1;
#X floatatom 576 831 5 0 0 0 - - -, f 5;
#X obj 576 809 % 2;
#X obj 767 722 tgl 15 0 empty empty empty 17 7 0 10 -262144 -1 -1 0
1;
#X obj 758 744 spigot;
#X obj 758 768 bng 15 250 50 0 empty empty empty 17 7 0 10 -262144
-1 -1;
#X obj 758 788 f;
#X obj 790 788 + 1;
#X floatatom 758 831 5 0 0 0 - - -, f 5;
#X obj 576 677 % 24;
#X obj 758 809 % 4;
#X obj 585 700 >= 23;
#X obj 758 677 % 12;
#X obj 767 700 >= 11;
#X obj 1017 805 % 8;
#X obj 1017 673 % 6;
#X obj 1266 814 % 16;
#X obj 1266 682 % 3;
#X obj 1026 696 >= 5;
#X obj 1275 705 >= 2;
#X obj 1353 814 % 24;
#X obj 1353 678 % 2;
#X obj 1362 701 >= 1;
#X obj 576 650 f;
#X obj 608 650 + 1;
#X obj 758 652 f;
#X obj 790 652 + 1;
#X obj 1017 652 f;
#X obj 1049 652 + 1;
#X obj 1266 660 f;
#X obj 1298 660 + 1;
#X obj 1353 655 f;
#X obj 1385 655 + 1;
#X msg 543 619 23;
#X msg 746 619 11;
#X msg 988 614 5;
#X msg 1249 619 2;
#X msg 1330 619 1;
#X obj 518 579 r LFCS;
#X obj 518 603 bng 15 250 50 0 empty empty empty 17 7 0 10 -262144
-1 -1;
#X obj 827 562 bng 15 250 50 0 empty empty empty 17 7 0 10 -262144
-1 -1;
#X msg 518 772 -1, f 2;
#X msg 1353 469 48;
#X obj 678 721 tgl 15 0 empty empty empty 17 7 0 10 -262144 -1 -1 1
1;
#X obj 669 743 spigot;
#X obj 669 768 bng 15 250 50 0 empty empty empty 17 7 0 10 -262144
-1 -1;
#X obj 669 788 f;
#X obj 701 788 + 1;
#X floatatom 669 830 5 0 0 0 - - -, f 5;
#X obj 669 649 f;
#X obj 701 649 + 1;
#X obj 669 808 % 3;
#X obj 669 676 % 16;
#X obj 678 699 >= 15;
#X msg 636 619 15;
#X obj 934 716 tgl 15 0 empty empty empty 17 7 0 10 -262144 -1 -1 1
1;
#X obj 925 738 spigot;
#X obj 925 762 bng 15 250 50 0 empty empty empty 17 7 0 10 -262144
-1 -1;
#X obj 925 782 f;
#X obj 957 782 + 1;
#X floatatom 925 825 5 0 0 0 - - -, f 5;
#X obj 925 646 f;
#X obj 957 646 + 1;
#X obj 925 803 % 6;
#X obj 925 671 % 8;
#X obj 934 694 >= 7;
#X msg 913 614 7;
#X obj 1175 726 tgl 15 0 empty empty empty 17 7 0 10 -262144 -1 -1
1 1;
#X obj 1166 748 spigot;
#X obj 1166 767 bng 15 250 50 0 empty empty empty 17 7 0 10 -262144
-1 -1;
#X obj 1166 787 f;
#X obj 1198 787 + 1;
#X floatatom 1166 835 5 0 0 0 - - -, f 5;
#X obj 1166 659 f;
#X obj 1198 659 + 1;
#X obj 1166 813 % 12;
#X obj 1166 681 % 4;
#X obj 1175 704 >= 3;
#X msg 1149 619 3;
#X obj 176 754 r PLL1b;
#X obj 187 772 r PLL2b;
#X obj 209 790 r PLL3b;
#X obj 275 754 r PLL1b;
#X obj 296 772 r PLL2b;
#X obj 318 790 r PLL3b;
#X obj 406 750 r PLL1b;
#X obj 427 768 r PLL2b;
#X obj 446 787 r PLL3b;
#X obj 384 269 s PLL1b;
#X obj 279 381 metro;
#X obj 247 426 f;
#X obj 273 426 + 1;
#X floatatom 279 473 5 0 0 0 - - -, f 5;
#X obj 279 452 %;
#X obj 279 401 bng 15 250 50 0 empty empty empty 17 7 0 10 -262144
-1 -1;
#X floatatom 328 350 5 0 0 0 - - -, f 5;
#X floatatom 280 356 5 0 0 0 - - -, f 5;
#X obj 260 306 /;
#X obj 270 332 * 4;
#X obj 235 399 r PLL1;
#X obj 328 393 s PLL3b;
#X obj 279 491 s PLL2b;
#X obj 572 234 s 497A;
#X obj 260 595 r 497A;
#X obj 1265 387 r 497A;
#X obj 446 241 s 497B;
#X obj 205 594 r 497B;
#X msg 295 641 7;
#X msg 335 641 9;
#X obj 1409 558 bng 15 250 50 0 empty empty empty 17 7 0 10 -262144
-1 -1;
#X obj 192 16 loadbang;
#X obj 578 965 outlet;
#X obj 660 1077 outlet;
#X obj 743 1076 outlet;
#X obj 1116 1075 outlet;
#X obj 920 1069 outlet;
#X obj 967 1074 outlet;
#X obj 1021 1068 outlet;
#X obj 1068 1073 outlet;
#X obj 1176 1085 outlet;
#X obj 1294 1086 outlet;
#X obj 1232 1084 outlet;
#X obj 1349 1085 outlet;
#X obj 192 670 expr $f1 * $f2 * $f3 * $f4 * $f5;
#X msg 399 640 1;
#N canvas 20 63 557 529 PolyLine 0;
#X obj 157 106 %;
#X obj 137 171 spigot;
#X obj 157 151 tgl 15 0 empty empty empty 17 7 0 10 -262144 -1 -1 0
1;
#X obj 139 151 bng 15 250 50 0 empty empty empty 17 7 0 10 -262144
-1 -1;
#X obj 138 193 bng 15 250 50 0 empty empty empty 17 7 0 10 -262144
-1 -1;
#X obj 157 128 == 0;
#X floatatom 126 262 5 0 0 0 - - -, f 5;
#X obj 127 213 f;
#X obj 153 214 + 1;
#X obj 127 239 %;
#X obj 186 88 /;
#X floatatom 184 108 5 0 0 0 - - -, f 5;
#X floatatom 244 58 5 0 0 0 - - -, f 5;
#X obj 128 285 outlet;
#X obj 201 5 inlet;
#X obj 25 4 inlet;
#X obj 107 4 inlet;
#X obj 68 4 inlet;
#X connect 0 0 5 0;
#X connect 1 0 4 0;
#X connect 2 0 1 1;
#X connect 3 0 1 0;
#X connect 4 0 7 0;
#X connect 5 0 2 0;
#X connect 6 0 13 0;
#X connect 7 0 8 0;
#X connect 7 0 9 0;
#X connect 8 0 7 1;
#X connect 9 0 6 0;
#X connect 10 0 11 0;
#X connect 11 0 0 1;
#X connect 12 0 9 1;
#X connect 12 0 10 1;
#X connect 14 0 12 0;
#X connect 15 0 7 0;
#X connect 16 0 10 0;
#X connect 17 0 0 0;
#X connect 17 0 3 0;
#X restore 38 842 pd PolyLine;
#X obj 23 787 r PLL1b;
#X obj 34 805 r PLL2b;
#X obj 56 823 r PLL3b;
#X floatatom 525 831 5 0 0 0 - - -, f 5;
#X obj 527 965 outlet;
#X msg 262 641 10;
#X obj 850 931 tgl 15 0 empty empty empty 17 7 0 10 -262144 -1 -1 1
1;
#X obj 841 953 spigot;
#X obj 841 972 bng 15 250 50 0 empty empty empty 17 7 0 10 -262144
-1 -1;
#X obj 841 992 f;
#X obj 873 992 + 1;
#X floatatom 841 1040 5 0 0 0 - - -, f 5;
#X obj 841 864 f;
#X obj 873 864 + 1;
#X obj 843 1075 outlet;
#X obj 841 1018 % 5;
#X obj 841 886 % 2;
#X obj 850 909 >= 1;
#X msg 824 824 1;
#X obj 872 813 bng 15 250 50 0 empty empty empty 17 7 0 10 -262144
-1 -1;
#X msg 144 66 1500;
#X connect 0 0 6 0;
#X connect 1 0 2 0;
#X connect 1 0 5 0;
#X connect 2 0 1 1;
#X connect 3 0 9 0;
#X connect 4 0 27 0;
#X connect 5 0 4 0;
#X connect 6 0 1 0;
#X connect 7 0 5 1;
#X connect 7 0 14 1;
#X connect 7 0 28 0;
#X connect 8 0 25 0;
#X connect 9 0 11 1;
#X connect 9 0 14 0;
#X connect 9 0 15 0;
#X connect 9 0 170 0;
#X connect 10 0 11 0;
#X connect 11 0 12 0;
#X connect 13 0 0 1;
#X connect 14 0 20 0;
#X connect 15 0 10 0;
#X connect 16 0 0 0;
#X connect 16 0 162 0;
#X connect 17 0 0 0;
#X connect 17 0 162 0;
#X connect 18 0 17 0;
#X connect 19 0 26 0;
#X connect 19 0 161 0;
#X connect 20 0 13 0;
#X connect 21 0 29 0;
#X connect 22 0 196 0;
#X connect 23 0 22 0;
#X connect 24 0 204 0;
#X connect 24 0 180 0;
#X connect 24 0 181 0;
#X connect 24 0 197 0;
#X connect 25 0 50 0;
#X connect 25 0 3 0;
#X connect 25 1 19 0;
#X connect 25 2 178 0;
#X connect 25 3 175 0;
#X connect 29 0 187 0;
#X connect 29 0 218 0;
#X connect 30 0 31 0;
#X connect 30 1 32 0;
#X connect 30 2 33 0;
#X connect 30 3 34 0;
#X connect 30 4 35 0;
#X connect 30 5 36 0;
#X connect 30 6 37 0;
#X connect 30 7 38 0;
#X connect 39 0 40 0;
#X connect 40 0 189 0;
#X connect 41 0 42 0;
#X connect 42 0 191 0;
#X connect 43 0 48 0;
#X connect 44 0 43 0;
#X connect 45 0 43 1;
#X connect 46 0 43 2;
#X connect 47 0 182 0;
#X connect 48 0 47 0;
#X connect 48 0 195 0;
#X connect 49 0 1 0;
#X connect 51 0 52 1;
#X connect 52 0 53 0;
#X connect 53 0 54 0;
#X connect 54 0 55 0;
#X connect 54 0 87 0;
#X connect 55 0 54 1;
#X connect 56 0 190 0;
#X connect 57 0 58 1;
#X connect 58 0 59 0;
#X connect 59 0 60 0;
#X connect 60 0 61 0;
#X connect 60 0 89 0;
#X connect 61 0 60 1;
#X connect 62 0 194 0;
#X connect 63 0 64 1;
#X connect 64 0 65 0;
#X connect 65 0 66 0;
#X connect 66 0 67 0;
#X connect 66 0 93 0;
#X connect 67 0 66 1;
#X connect 68 0 193 0;
#X connect 69 0 70 1;
#X connect 70 0 71 0;
#X connect 71 0 72 0;
#X connect 72 0 73 0;
#X connect 72 0 75 0;
#X connect 73 0 72 1;
#X connect 74 0 184 0;
#X connect 75 0 74 0;
#X connect 76 0 77 1;
#X connect 77 0 78 0;
#X connect 78 0 79 0;
#X connect 79 0 80 0;
#X connect 79 0 83 0;
#X connect 80 0 79 1;
#X connect 81 0 186 0;
#X connect 82 0 70 0;
#X connect 82 0 84 0;
#X connect 83 0 81 0;
#X connect 84 0 69 0;
#X connect 85 0 77 0;
#X connect 85 0 86 0;
#X connect 86 0 76 0;
#X connect 87 0 56 0;
#X connect 88 0 52 0;
#X connect 88 0 91 0;
#X connect 89 0 62 0;
#X connect 90 0 58 0;
#X connect 90 0 92 0;
#X connect 91 0 51 0;
#X connect 92 0 57 0;
#X connect 93 0 68 0;
#X connect 94 0 64 0;
#X connect 94 0 95 0;
#X connect 95 0 63 0;
#X connect 96 0 97 0;
#X connect 96 0 82 0;
#X connect 97 0 96 1;
#X connect 98 0 99 0;
#X connect 98 0 85 0;
#X connect 99 0 98 1;
#X connect 100 0 101 0;
#X connect 100 0 88 0;
#X connect 101 0 100 1;
#X connect 102 0 103 0;
#X connect 102 0 90 0;
#X connect 103 0 102 1;
#X connect 104 0 105 0;
#X connect 104 0 94 0;
#X connect 105 0 104 1;
#X connect 106 0 96 0;
#X connect 107 0 98 0;
#X connect 108 0 100 0;
#X connect 109 0 102 0;
#X connect 110 0 104 0;
#X connect 111 0 112 0;
#X connect 112 0 106 0;
#X connect 112 0 107 0;
#X connect 112 0 108 0;
#X connect 112 0 109 0;
#X connect 112 0 110 0;
#X connect 112 0 114 0;
#X connect 112 0 127 0;
#X connect 112 0 139 0;
#X connect 112 0 151 0;
#X connect 112 0 217 0;
#X connect 113 0 96 0;
#X connect 113 0 98 0;
#X connect 113 0 100 0;
#X connect 113 0 102 0;
#X connect 113 0 104 0;
#X connect 113 0 122 0;
#X connect 113 0 134 0;
#X connect 113 0 146 0;
#X connect 114 0 72 0;
#X connect 114 0 79 0;
#X connect 114 0 54 0;
#X connect 114 0 60 0;
#X connect 114 0 66 0;
#X connect 114 0 119 0;
#X connect 114 0 131 0;
#X connect 114 0 143 0;
#X connect 114 0 208 0;
#X connect 115 0 43 3;
#X connect 115 0 7 0;
#X connect 116 0 117 1;
#X connect 117 0 118 0;
#X connect 118 0 119 0;
#X connect 119 0 120 0;
#X connect 119 0 124 0;
#X connect 120 0 119 1;
#X connect 121 0 185 0;
#X connect 122 0 123 0;
#X connect 122 0 125 0;
#X connect 123 0 122 1;
#X connect 124 0 121 0;
#X connect 125 0 117 0;
#X connect 125 0 126 0;
#X connect 126 0 116 0;
#X connect 127 0 122 0;
#X connect 128 0 129 1;
#X connect 129 0 130 0;
#X connect 130 0 131 0;
#X connect 131 0 132 0;
#X connect 131 0 136 0;
#X connect 132 0 131 1;
#X connect 133 0 188 0;
#X connect 134 0 135 0;
#X connect 134 0 137 0;
#X connect 135 0 134 1;
#X connect 136 0 133 0;
#X connect 137 0 129 0;
#X connect 137 0 138 0;
#X connect 138 0 128 0;
#X connect 139 0 134 0;
#X connect 140 0 141 1;
#X connect 141 0 142 0;
#X connect 142 0 143 0;
#X connect 143 0 144 0;
#X connect 143 0 148 0;
#X connect 144 0 143 1;
#X connect 145 0 192 0;
#X connect 146 0 147 0;
#X connect 146 0 149 0;
#X connect 147 0 146 1;
#X connect 148 0 145 0;
#X connect 149 0 141 0;
#X connect 149 0 150 0;
#X connect 150 0 140 0;
#X connect 151 0 146 0;
#X connect 152 0 21 0;
#X connect 153 0 21 1;
#X connect 154 0 21 2;
#X connect 155 0 39 0;
#X connect 156 0 39 1;
#X connect 157 0 39 2;
#X connect 158 0 41 0;
#X connect 159 0 41 1;
#X connect 160 0 41 2;
#X connect 162 0 167 0;
#X connect 163 0 164 0;
#X connect 163 0 166 0;
#X connect 164 0 163 1;
#X connect 165 0 174 0;
#X connect 166 0 165 0;
#X connect 167 0 163 0;
#X connect 168 0 166 1;
#X connect 168 0 170 1;
#X connect 168 0 173 0;
#X connect 169 0 162 1;
#X connect 170 0 171 0;
#X connect 171 0 169 0;
#X connect 172 0 163 0;
#X connect 176 0 24 0;
#X connect 177 0 115 0;
#X connect 179 0 23 0;
#X connect 180 0 39 3;
#X connect 180 0 196 2;
#X connect 181 0 41 3;
#X connect 181 0 196 3;
#X connect 182 0 113 0;
#X connect 183 0 8 0;
#X connect 183 0 219 0;
#X connect 196 0 168 0;
#X connect 197 0 196 4;
#X connect 197 0 198 3;
#X connect 198 0 202 0;
#X connect 199 0 198 0;
#X connect 200 0 198 1;
#X connect 201 0 198 2;
#X connect 202 0 203 0;
#X connect 204 0 21 3;
#X connect 204 0 196 1;
#X connect 205 0 206 1;
#X connect 206 0 207 0;
#X connect 207 0 208 0;
#X connect 208 0 209 0;
#X connect 208 0 214 0;
#X connect 209 0 208 1;
#X connect 210 0 213 0;
#X connect 211 0 212 0;
#X connect 211 0 215 0;
#X connect 212 0 211 1;
#X connect 214 0 210 0;
#X connect 215 0 206 0;
#X connect 215 0 216 0;
#X connect 216 0 205 0;
#X connect 217 0 211 0;
#X connect 218 0 211 0;
#X connect 219 0 3 0;
#X coords 0 -1 1 1 280 60 1 100 100;
#X restore 6 -10 pd SuperPolyClock;
#N canvas 81 354 1056 333 prcs 0;
#X obj 75 54 inlet;
#X obj 36 54 inlet;
#X obj 156 54 inlet;
#X obj 117 54 inlet;
#X obj 237 54 inlet;
#X obj 198 54 inlet;
#X obj 32 142 s CPR1;
#X obj 80 143 s CPR2;
#X obj 125 144 s CPR3;
#X obj 173 145 s CPR4;
#X obj 223 144 s CPR5;
#X obj 271 145 s CPR6;
#X obj 39 101 bng 15 250 50 0 empty empty empty 17 7 0 10 -262144 -1
-1;
#X obj 88 107 bng 15 250 50 0 empty empty empty 17 7 0 10 -262144 -1
-1;
#X obj 133 107 bng 15 250 50 0 empty empty empty 17 7 0 10 -262144
-1 -1;
#X obj 180 107 bng 15 250 50 0 empty empty empty 17 7 0 10 -262144
-1 -1;
#X obj 225 105 bng 15 250 50 0 empty empty empty 17 7 0 10 -262144
-1 -1;
#X obj 271 103 bng 15 250 50 0 empty empty empty 17 7 0 10 -262144
-1 -1;
#X obj 330 56 inlet;
#X obj 291 56 inlet;
#X obj 318 107 bng 15 250 50 0 empty empty empty 17 7 0 10 -262144
-1 -1;
#X obj 364 105 bng 15 250 50 0 empty empty empty 17 7 0 10 -262144
-1 -1;
#X obj 316 146 s CPR7;
#X obj 364 147 s CPR8;
#X obj 689 68 inlet;
#X obj 723 117 bng 15 250 50 0 empty empty empty 17 7 0 10 -262144
-1 -1;
#X obj 723 154 s CPR48, f 8;
#X obj 398 54 inlet;
#X obj 479 54 inlet;
#X obj 440 54 inlet;
#X obj 422 107 bng 15 250 50 0 empty empty empty 17 7 0 10 -262144
-1 -1;
#X obj 467 105 bng 15 250 50 0 empty empty empty 17 7 0 10 -262144
-1 -1;
#X obj 513 103 bng 15 250 50 0 empty empty empty 17 7 0 10 -262144
-1 -1;
#X obj 623 57 inlet;
#X obj 547 56 inlet;
#X obj 574 107 bng 15 250 50 0 empty empty empty 17 7 0 10 -262144
-1 -1;
#X obj 635 105 bng 15 250 50 0 empty empty empty 17 7 0 10 -262144
-1 -1;
#X obj 415 145 s CPR9;
#X obj 465 144 s CPR10;
#X obj 513 145 s CPR12;
#X obj 572 146 s CPR16;
#X obj 635 147 s CPR24, f 46;
#X connect 0 0 13 0;
#X connect 1 0 12 0;
#X connect 2 0 15 0;
#X connect 3 0 14 0;
#X connect 4 0 17 0;
#X connect 5 0 16 0;
#X connect 12 0 6 0;
#X connect 13 0 7 0;
#X connect 14 0 8 0;
#X connect 15 0 9 0;
#X connect 16 0 10 0;
#X connect 17 0 11 0;
#X connect 18 0 21 0;
#X connect 19 0 20 0;
#X connect 20 0 22 0;
#X connect 21 0 23 0;
#X connect 24 0 25 0;
#X connect 25 0 26 0;
#X connect 27 0 30 0;
#X connect 28 0 32 0;
#X connect 29 0 31 0;
#X connect 30 0 37 0;
#X connect 31 0 38 0;
#X connect 32 0 39 0;
#X connect 33 0 36 0;
#X connect 34 0 35 0;
#X connect 35 0 40 0;
#X connect 36 0 41 0;
#X restore 192 50 pd prcs;
#N canvas 277 22 968 610 clckdvdr 0;
#X obj 154 580 outlet;
#X obj 199 580 outlet;
#X obj 246 580 outlet;
#X obj 292 580 outlet;
#X obj 478 580 outlet;
#X obj 338 580 outlet;
#X obj 385 580 outlet;
#X obj 431 580 outlet;
#X obj 119 140 f;
#X floatatom 231 240 5 0 0 0 - - -, f 5;
#X obj 170 135 + 1;
#X obj 291 346 - 1;
#X obj 274 423 tgl 15 0 empty empty empty 17 7 0 10 -262144 -1 -1 0
1;
#X obj 275 391 >=;
#X obj 280 204 % 2;
#X obj 252 465 spigot;
#X obj 258 509 bng 15 250 50 0 empty empty empty 17 7 0 10 -262144
-1 -1;
#X obj 236 509 bng 15 250 50 0 empty empty empty 17 7 0 10 -262144
-1 -1;
#X floatatom 268 240 5 0 0 0 - - -, f 5;
#X obj 325 346 - 1;
#X obj 318 423 tgl 15 0 empty empty empty 17 7 0 10 -262144 -1 -1 0
1;
#X obj 315 391 >=;
#X obj 309 204 % 2;
#X obj 296 465 spigot;
#X obj 280 509 bng 15 250 50 0 empty empty empty 17 7 0 10 -262144
-1 -1;
#X msg 718 130 3;
#X floatatom 306 240 5 0 0 0 - - -, f 5;
#X obj 367 346 - 1;
#X obj 362 423 tgl 15 0 empty empty empty 17 7 0 10 -262144 -1 -1 0
1;
#X obj 362 391 >=;
#X obj 338 204 % 2;
#X obj 341 465 spigot;
#X obj 303 509 bng 15 250 50 0 empty empty empty 17 7 0 10 -262144
-1 -1;
#X floatatom 344 240 5 0 0 0 - - -, f 5;
#X obj 409 346 - 1;
#X obj 401 423 tgl 15 0 empty empty empty 17 7 0 10 -262144 -1 -1 0
1;
#X obj 399 391 >=;
#X obj 367 204 % 2;
#X obj 385 465 spigot;
#X obj 327 509 bng 15 250 50 0 empty empty empty 17 7 0 10 -262144
-1 -1;
#X floatatom 386 240 5 0 0 0 - - -, f 5;
#X obj 453 346 - 1;
#X obj 453 423 tgl 15 0 empty empty empty 17 7 0 10 -262144 -1 -1 0
1;
#X obj 446 391 >=;
#X obj 396 204 % 2;
#X obj 430 465 spigot;
#X obj 348 509 bng 15 250 50 0 empty empty empty 17 7 0 10 -262144
-1 -1;
#X floatatom 428 240 5 0 0 0 - - -, f 5;
#X obj 493 346 - 1;
#X obj 494 423 tgl 15 0 empty empty empty 17 7 0 10 -262144 -1 -1 0
1;
#X obj 487 391 >=;
#X obj 424 204 % 2;
#X obj 475 465 spigot;
#X obj 374 509 bng 15 250 50 0 empty empty empty 17 7 0 10 -262144
-1 -1;
#X floatatom 469 240 5 0 0 0 - - -, f 5;
#X obj 545 346 - 1;
#X obj 536 423 tgl 15 0 empty empty empty 17 7 0 10 -262144 -1 -1 0
1;
#X obj 535 391 >=;
#X obj 453 204 % 2;
#X obj 520 465 spigot;
#X obj 398 509 bng 15 250 50 0 empty empty empty 17 7 0 10 -262144
-1 -1;
#X obj 285 18 loadbang;
#X msg 689 130 2;
#X msg 749 130 4;
#X msg 782 130 5;
#X msg 813 130 6;
#X msg 845 130 7;
#X msg 876 130 8;
#X obj 102 103 bng 15 250 50 0 empty empty empty 17 7 0 10 -262144
-1 -1;
#X obj 84 44 inlet;
#X connect 8 0 10 0;
#X connect 8 0 17 0;
#X connect 8 0 14 0;
#X connect 8 0 22 0;
#X connect 8 0 30 0;
#X connect 8 0 37 0;
#X connect 8 0 44 0;
#X connect 8 0 51 0;
#X connect 8 0 58 0;
#X connect 9 0 13 0;
#X connect 9 0 15 0;
#X connect 10 0 8 1;
#X connect 11 0 13 1;
#X connect 12 0 15 1;
#X connect 13 0 12 0;
#X connect 14 0 9 0;
#X connect 15 0 16 0;
#X connect 16 0 1 0;
#X connect 18 0 21 0;
#X connect 18 0 23 0;
#X connect 19 0 21 1;
#X connect 20 0 23 1;
#X connect 21 0 20 0;
#X connect 22 0 18 0;
#X connect 23 0 24 0;
#X connect 24 0 2 0;
#X connect 25 0 19 0;
#X connect 25 0 22 1;
#X connect 26 0 29 0;
#X connect 26 0 31 0;
#X connect 27 0 29 1;
#X connect 28 0 31 1;
#X connect 29 0 28 0;
#X connect 30 0 26 0;
#X connect 31 0 32 0;
#X connect 32 0 3 0;
#X connect 33 0 36 0;
#X connect 33 0 38 0;
#X connect 34 0 36 1;
#X connect 35 0 38 1;
#X connect 36 0 35 0;
#X connect 37 0 33 0;
#X connect 38 0 39 0;
#X connect 39 0 5 0;
#X connect 40 0 43 0;
#X connect 40 0 45 0;
#X connect 41 0 43 1;
#X connect 42 0 45 1;
#X connect 43 0 42 0;
#X connect 44 0 40 0;
#X connect 45 0 46 0;
#X connect 46 0 6 0;
#X connect 47 0 50 0;
#X connect 47 0 52 0;
#X connect 48 0 50 1;
#X connect 49 0 52 1;
#X connect 50 0 49 0;
#X connect 51 0 47 0;
#X connect 52 0 53 0;
#X connect 53 0 7 0;
#X connect 54 0 57 0;
#X connect 54 0 59 0;
#X connect 55 0 57 1;
#X connect 56 0 59 1;
#X connect 57 0 56 0;
#X connect 58 0 54 0;
#X connect 59 0 60 0;
#X connect 60 0 4 0;
#X connect 61 0 62 0;
#X connect 61 0 25 0;
#X connect 61 0 63 0;
#X connect 61 0 64 0;
#X connect 61 0 65 0;
#X connect 61 0 66 0;
#X connect 61 0 67 0;
#X connect 62 0 11 0;
#X connect 62 0 14 1;
#X connect 63 0 27 0;
#X connect 63 0 30 1;
#X connect 64 0 34 0;
#X connect 64 0 37 1;
#X connect 65 0 41 0;
#X connect 65 0 44 1;
#X connect 66 0 48 0;
#X connect 66 0 51 1;
#X connect 67 0 55 0;
#X connect 67 0 58 1;
#X connect 68 0 8 0;
#X connect 68 0 0 0;
#X connect 69 0 68 0;
#X restore 66 106 pd clckdvdr;
#X obj 27 122 bng 15 250 50 0 empty empty empty 17 7 0 10 -262144 -1
-1;
#X obj 45 122 bng 15 250 50 0 empty empty empty 17 7 0 10 -262144 -1
-1;
#X obj 63 122 bng 15 250 50 0 empty empty empty 17 7 0 10 -262144 -1
-1;
#X obj 81 122 bng 15 250 50 0 empty empty empty 17 7 0 10 -262144 -1
-1;
#X obj 99 122 bng 15 250 50 0 empty empty empty 17 7 0 10 -262144 -1
-1;
#X obj 117 122 bng 15 250 50 0 empty empty empty 17 7 0 10 -262144
-1 -1;
#X obj 135 122 bng 15 250 50 0 empty empty empty 17 7 0 10 -262144
-1 -1;
#X obj 153 122 bng 15 250 50 0 empty empty empty 17 7 0 10 -262144
-1 -1;
#N canvas 592 54 1087 752 CLCKMXRYOLO 0;
#X obj 42 545 inlet;
#X obj 2 545 inlet;
#X obj 123 545 inlet;
#X obj 83 545 inlet;
#X obj 207 545 inlet;
#X obj 167 545 inlet;
#X obj 288 545 inlet;
#X obj 248 545 inlet;
#X obj 160 108 tgl 15 0 empty empty empty 17 7 0 10 -262144 -1 -1 0
1;
#X obj 106 108 tgl 15 0 empty empty empty 17 7 0 10 -262144 -1 -1 0
1;
#X obj 124 108 tgl 15 0 empty empty empty 17 7 0 10 -262144 -1 -1 0
1;
#X obj 142 108 tgl 15 0 empty empty empty 17 7 0 10 -262144 -1 -1 0
1;
#X obj 232 108 tgl 15 0 empty empty empty 17 7 0 10 -262144 -1 -1 0
1;
#X obj 178 108 tgl 15 0 empty empty empty 17 7 0 10 -262144 -1 -1 0
1;
#X obj 196 108 tgl 15 0 empty empty empty 17 7 0 10 -262144 -1 -1 0
1;
#X obj 214 108 tgl 15 0 empty empty empty 17 7 0 10 -262144 -1 -1 0
1;
#X obj 584 376 spigot;
#X obj 596 359 spigot;
#X obj 611 340 spigot;
#X obj 629 320 spigot;
#X obj 646 303 spigot;
#X obj 672 288 spigot;
#X obj 695 271 spigot;
#X obj 723 256 spigot;
#X obj 252 108 bng 15 250 50 0 empty empty empty 17 7 0 10 -262144
-1 -1;
#X obj 160 131 tgl 15 0 empty empty empty 17 7 0 10 -262144 -1 -1 0
1;
#X obj 106 131 tgl 15 0 empty empty empty 17 7 0 10 -262144 -1 -1 0
1;
#X obj 124 131 tgl 15 0 empty empty empty 17 7 0 10 -262144 -1 -1 0
1;
#X obj 142 131 tgl 15 0 empty empty empty 17 7 0 10 -262144 -1 -1 0
1;
#X obj 232 131 tgl 15 0 empty empty empty 17 7 0 10 -262144 -1 -1 0
1;
#X obj 178 131 tgl 15 0 empty empty empty 17 7 0 10 -262144 -1 -1 0
1;
#X obj 196 131 tgl 15 0 empty empty empty 17 7 0 10 -262144 -1 -1 0
1;
#X obj 214 131 tgl 15 0 empty empty empty 17 7 0 10 -262144 -1 -1 0
1;
#X obj 168 461 spigot;
#X obj 180 444 spigot;
#X obj 195 425 spigot;
#X obj 213 405 spigot;
#X obj 230 388 spigot;
#X obj 256 373 spigot;
#X obj 279 356 spigot;
#X obj 307 341 spigot;
#X obj 252 131 bng 15 250 50 0 empty empty empty 17 7 0 10 -262144
-1 -1;
#X obj 160 154 tgl 15 0 empty empty empty 17 7 0 10 -262144 -1 -1 0
1;
#X obj 106 154 tgl 15 0 empty empty empty 17 7 0 10 -262144 -1 -1 0
1;
#X obj 124 154 tgl 15 0 empty empty empty 17 7 0 10 -262144 -1 -1 0
1;
#X obj 142 154 tgl 15 0 empty empty empty 17 7 0 10 -262144 -1 -1 0
1;
#X obj 232 154 tgl 15 0 empty empty empty 17 7 0 10 -262144 -1 -1 0
1;
#X obj 178 154 tgl 15 0 empty empty empty 17 7 0 10 -262144 -1 -1 0
1;
#X obj 196 154 tgl 15 0 empty empty empty 17 7 0 10 -262144 -1 -1 0
1;
#X obj 214 154 tgl 15 0 empty empty empty 17 7 0 10 -262144 -1 -1 0
1;
#X obj 600 638 spigot;
#X obj 612 621 spigot;
#X obj 627 602 spigot;
#X obj 645 582 spigot;
#X obj 662 565 spigot;
#X obj 688 550 spigot;
#X obj 711 533 spigot;
#X obj 739 518 spigot;
#X obj 252 154 bng 15 250 50 0 empty empty empty 17 7 0 10 -262144
-1 -1;
#X obj 160 177 tgl 15 0 empty empty empty 17 7 0 10 -262144 -1 -1 0
1;
#X obj 106 177 tgl 15 0 empty empty empty 17 7 0 10 -262144 -1 -1 0
1;
#X obj 124 177 tgl 15 0 empty empty empty 17 7 0 10 -262144 -1 -1 0
1;
#X obj 142 177 tgl 15 0 empty empty empty 17 7 0 10 -262144 -1 -1 0
1;
#X obj 232 177 tgl 15 0 empty empty empty 17 7 0 10 -262144 -1 -1 0
1;
#X obj 178 177 tgl 15 0 empty empty empty 17 7 0 10 -262144 -1 -1 0
1;
#X obj 196 177 tgl 15 0 empty empty empty 17 7 0 10 -262144 -1 -1 0
1;
#X obj 214 177 tgl 15 0 empty empty empty 17 7 0 10 -262144 -1 -1 0
1;
#X obj 491 821 spigot;
#X obj 503 804 spigot;
#X obj 518 785 spigot;
#X obj 536 765 spigot;
#X obj 553 748 spigot;
#X obj 579 733 spigot;
#X obj 602 716 spigot;
#X obj 630 701 spigot;
#X obj 252 177 bng 15 250 50 0 empty empty empty 17 7 0 10 -262144
-1 -1;
#X obj 45 279 s CM1;
#X obj 40 309 s CM2;
#X obj 42 332 s CM3;
#X obj 44 366 s CM4;
#X connect 0 0 17 0;
#X connect 0 0 34 0;
#X connect 0 0 68 0;
#X connect 0 0 51 0;
#X connect 1 0 16 0;
#X connect 1 0 33 0;
#X connect 1 0 50 0;
#X connect 1 0 67 0;
#X connect 2 0 19 0;
#X connect 2 0 36 0;
#X connect 2 0 70 0;
#X connect 2 0 53 0;
#X connect 3 0 18 0;
#X connect 3 0 35 0;
#X connect 3 0 69 0;
#X connect 3 0 52 0;
#X connect 4 0 21 0;
#X connect 4 0 38 0;
#X connect 4 0 72 0;
#X connect 4 0 55 0;
#X connect 5 0 20 0;
#X connect 5 0 37 0;
#X connect 5 0 71 0;
#X connect 5 0 54 0;
#X connect 6 0 23 0;
#X connect 6 0 40 0;
#X connect 6 0 57 0;
#X connect 6 0 74 0;
#X connect 7 0 22 0;
#X connect 7 0 39 0;
#X connect 7 0 73 0;
#X connect 7 0 56 0;
#X connect 8 0 19 1;
#X connect 9 0 16 1;
#X connect 10 0 17 1;
#X connect 11 0 18 1;
#X connect 12 0 23 1;
#X connect 13 0 20 1;
#X connect 14 0 21 1;
#X connect 15 0 22 1;
#X connect 16 0 24 0;
#X connect 17 0 24 0;
#X connect 18 0 24 0;
#X connect 19 0 24 0;
#X connect 20 0 24 0;
#X connect 21 0 24 0;
#X connect 22 0 24 0;
#X connect 23 0 24 0;
#X connect 24 0 76 0;
#X connect 25 0 36 1;
#X connect 26 0 33 1;
#X connect 27 0 34 1;
#X connect 28 0 35 1;
#X connect 29 0 40 1;
#X connect 30 0 37 1;
#X connect 31 0 38 1;
#X connect 32 0 39 1;
#X connect 33 0 41 0;
#X connect 34 0 41 0;
#X connect 35 0 41 0;
#X connect 36 0 41 0;
#X connect 37 0 41 0;
#X connect 38 0 41 0;
#X connect 39 0 41 0;
#X connect 40 0 41 0;
#X connect 41 0 77 0;
#X connect 42 0 53 1;
#X connect 43 0 50 1;
#X connect 44 0 51 1;
#X connect 45 0 52 1;
#X connect 46 0 57 1;
#X connect 47 0 54 1;
#X connect 48 0 55 1;
#X connect 49 0 56 1;
#X connect 50 0 58 0;
#X connect 51 0 58 0;
#X connect 52 0 58 0;
#X connect 53 0 58 0;
#X connect 54 0 58 0;
#X connect 55 0 58 0;
#X connect 56 0 58 0;
#X connect 57 0 58 0;
#X connect 58 0 78 0;
#X connect 59 0 70 1;
#X connect 60 0 67 1;
#X connect 61 0 68 1;
#X connect 62 0 69 1;
#X connect 63 0 74 1;
#X connect 64 0 71 1;
#X connect 65 0 72 1;
#X connect 66 0 73 1;
#X connect 67 0 75 0;
#X connect 68 0 75 0;
#X connect 69 0 75 0;
#X connect 70 0 75 0;
#X connect 71 0 75 0;
#X connect 72 0 75 0;
#X connect 73 0 75 0;
#X connect 74 0 75 0;
#X connect 75 0 79 0;
#X coords 0 -1 1 1 180 100 2 100 100;
#X restore 21 137 pd CLCKMXRYOLO;
#N canvas 94 28 1169 629 EDO 0;
#N canvas 0 22 450 278 (subpatch) 0;
#X array pqt 20 float 3;
#A 0 0 1 2 3 4 5 6 7 8 9 10 11 12 13 14 15 16 17 18 19;
#X coords 0 19.2 20 -0.2 200 140 1 0 0;
#X restore 816 18 graph;
#X obj 203 365 expr if($f1 < 10 \, pqt[$f1] \, if($f1 < 20 \, pqt[$f1
- 10] + 10 \, if($f1 < 30 \, pqt[$f1 - 20] + 20 \, if($f1 < 40 \, pqt[$f1
- 30] + 30 \, 0)))) \;;
#X obj 203 413 expr pow(10 \, $f1 * 0.030103 + 2) \;;
#X obj 203 343 inlet;
#X obj 203 436 outlet;
#X obj 324 500 expr if($f1 < 10 \, pqt[$f1] \, if($f1 < 20 \, pqt[$f1
- 10] + 10 \, if($f1 < 30 \, pqt[$f1 - 20] + 20 \, if($f1 < 40 \, pqt[$f1
- 30] + 30 \, 0)))) \;;
#X obj 324 548 expr pow(10 \, $f1 * 0.030103 + 2) \;;
#X obj 324 478 inlet;
#X obj 324 571 outlet;
#X obj 10 41 inlet;
#X obj 760 415 inlet;
#X obj 708 684 outlet, f 10;
#X floatatom 760 443 5 0 0 0 - - -, f 5;
#X floatatom 708 515 5 0 0 0 - - -, f 5;
#X floatatom 804 505 5 0 0 0 - - -, f 5;
#X obj 804 523 i;
#X floatatom 804 545 5 0 0 0 - - -, f 5;
#X floatatom 708 562 5 0 0 0 - - -, f 5;
#X obj 708 595 +;
#X floatatom 708 616 5 0 0 0 - - -, f 5;
#X obj 708 537 expr pqt[$f1] \;;
#X msg 873 379 0.30103;
#X obj 873 509 /;
#X floatatom 873 638 10 0 0 0 - - -, f 10;
#X obj 708 660 expr pow(10 \, $f1 * $f2 + 2) \;;
#X msg 816 166 \; pqt 0 0 1 2 3 4 5 6 7 8 9 10 11 12 13 14 15 16 17
18 19;
#X obj 735 25 vsl 15 50 7 20 0 0 EDOSCALE empty EDO_Select 0 -9 0 10
-262144 -1 -1 1400 1;
#X obj 888 420 i;
#X floatatom 888 441 5 0 0 0 - - -, f 5;
#X obj 888 399 r EDOSCALE;
#X obj 735 85 i;
#X floatatom 735 106 5 0 0 0 - - -, f 5;
#X floatatom 906 493 5 0 0 0 - - -, f 5;
#X obj 888 464 bng 15 250 50 0 empty empty empty 17 7 0 10 -262144
-1 -1;
#X obj 804 568 *;
#X obj 804 485 /;
#X obj 708 489 %;
#X msg 10 67 \; pqt 0 \$1 \$2 \$3 \$4 \$5 \$6 \$7 \$8 \$9 \$10 \$11
\$12 \$13 \$14 \$15 \$16 \$17 \$18 \$19, f 12;
#X obj 708 638 - 60;
#X connect 1 0 2 0;
#X connect 2 0 4 0;
#X connect 3 0 1 0;
#X connect 5 0 6 0;
#X connect 6 0 8 0;
#X connect 7 0 5 0;
#X connect 9 0 37 0;
#X connect 10 0 12 0;
#X connect 12 0 35 0;
#X connect 12 0 36 0;
#X connect 13 0 20 0;
#X connect 14 0 15 0;
#X connect 15 0 16 0;
#X connect 16 0 34 0;
#X connect 17 0 18 0;
#X connect 18 0 19 0;
#X connect 19 0 38 0;
#X connect 20 0 17 0;
#X connect 21 0 22 0;
#X connect 22 0 23 0;
#X connect 23 0 24 1;
#X connect 24 0 11 0;
#X connect 26 0 30 0;
#X connect 27 0 28 0;
#X connect 28 0 33 0;
#X connect 28 0 22 1;
#X connect 28 0 34 1;
#X connect 28 0 35 1;
#X connect 28 0 36 1;
#X connect 29 0 27 0;
#X connect 30 0 31 0;
#X connect 33 0 22 0;
#X connect 34 0 18 1;
#X connect 35 0 14 0;
#X connect 36 0 13 0;
#X connect 38 0 24 0;
#X coords 0 -1 1 1 85 60 1 100 100;
#X restore 7 518 pd EDO;
#X obj 938 484 s~ FMB1;
#X obj 997 485 s~ FMB2;
#X obj 62 1008 dac~;
#X obj 62 869 r~ FMB1;
#X obj 112 869 r~ FMB2;
#X obj 62 980 *~;
#X floatatom 274 966 5 0 0 0 - - -, f 5;
#X obj 274 716 vsl 15 128 0 1 0 0 empty empty Master 0 -9 0 10 -262144
-1 -1 3500 1;
#X floatatom 77 852 5 0 0 0 - - -, f 5;
#X obj 77 715 vsl 15 128 0 1 0 0 empty empty FMB1 0 -9 0 10 -262144
-1 -1 6300 1;
#X obj 62 890 *~;
#X floatatom 127 852 5 0 0 0 - - -, f 5;
#X obj 127 715 vsl 15 128 0 1 0 0 empty empty FMB2 0 -9 0 10 -262144
-1 -1 0 1;
#X obj 112 890 *~;
#X obj 65 88 r CPR16;
#X obj 872 256 s EDOIN2;
#X obj 103 434 r EDOIN2;
#X obj 92 414 r EDOIN1;
#X obj 15 626 s EDOOUT1;
#X obj 31 606 s EDOOUT2;
#X obj 872 334 r EDOOUT2;
#N canvas 485 112 619 568 FMB1CLCKSRC 0;
#X floatatom -40 159 5 0 0 0 - - -, f 5;
#X obj 103 105 hradio 18 1 0 6 empty empty empty 0 -8 0 10 -262144
-1 -1 0;
#X obj -128 227 spigot;
#X obj -102 199 == 0;
#X obj -67 227 spigot;
#X obj -10 228 spigot;
#X obj -36 199 == 1;
#X obj 21 200 == 2;
#X obj -72 325 outlet;
#X obj 42 230 spigot;
#X obj 62 201 == 3;
#X obj 96 230 spigot;
#X obj 148 232 spigot;
#X obj 127 202 == 4;
#X obj 168 203 == 5;
#X obj -107 46 r CM1;
#X obj -107 24 r CM2;
#X obj -108 -25 r CM3;
#X obj -108 -3 r CM4;
#X obj -119 116 r CPR1;
#X obj -110 88 r CPR2;
#X obj -30 22 r CPR3;
#X obj -74 137 r CPR4;
#X obj 7 129 r CPR5;
#X obj 22 0 r CPR6;
#X obj 55 161 r CPR7;
#X obj 109 159 r CPR8;
#X obj 164 170 r CPR9;
#X obj 72 -2 r CPR10;
#X obj 71 20 r CPR12;
#X obj 71 43 r CPR16;
#X obj -132 348 bng 15 250 50 0 empty empty empty 17 7 0 10 -262144
-1 -1;
#X obj 139 -21 inlet;
#X connect 0 0 3 0;
#X connect 0 0 6 0;
#X connect 0 0 7 0;
#X connect 0 0 10 0;
#X connect 0 0 13 0;
#X connect 0 0 14 0;
#X connect 1 0 0 0;
#X connect 2 0 8 0;
#X connect 3 0 2 1;
#X connect 4 0 8 0;
#X connect 5 0 8 0;
#X connect 6 0 4 1;
#X connect 7 0 5 1;
#X connect 9 0 8 0;
#X connect 10 0 9 1;
#X connect 11 0 8 0;
#X connect 12 0 8 0;
#X connect 13 0 11 1;
#X connect 14 0 12 1;
#X connect 15 0 2 0;
#X connect 22 0 4 0;
#X connect 23 0 5 0;
#X connect 25 0 9 0;
#X connect 26 0 11 0;
#X connect 27 0 12 0;
#X connect 32 0 1 0;
#X coords 0 -1 1 1 115 27 2 100 100;
#X restore 483 972 pd FMB1CLCKSRC;
#N canvas 485 112 619 568 FMB2CLCKSRC 0;
#X floatatom -40 159 5 0 0 0 - - -, f 5;
#X obj 103 105 hradio 18 1 0 6 empty empty empty 0 -8 0 10 -262144
-1 -1 0;
#X obj -128 227 spigot;
#X obj -102 199 == 0;
#X obj -67 227 spigot;
#X obj -10 228 spigot;
#X obj -36 199 == 1;
#X obj 21 200 == 2;
#X obj -72 325 outlet;
#X obj 42 230 spigot;
#X obj 62 201 == 3;
#X obj 96 230 spigot;
#X obj 148 232 spigot;
#X obj 127 202 == 4;
#X obj 168 203 == 5;
#X obj -107 46 r CM1;
#X obj -120 104 r CM2;
#X obj -108 -25 r CM3;
#X obj -108 -3 r CM4;
#X obj -29 -23 r CPR1;
#X obj -29 0 r CPR2;
#X obj -65 108 r CPR3;
#X obj -30 45 r CPR4;
#X obj -4 95 r CPR5;
#X obj -1 130 r CPR6;
#X obj 56 157 r CPR7;
#X obj 21 45 r CPR8;
#X obj 72 -25 r CPR9;
#X obj 107 162 r CPR10;
#X obj 168 166 r CPR12;
#X obj 71 43 r CPR16;
#X obj -132 348 bng 15 250 50 0 empty empty empty 17 7 0 10 -262144
-1 -1;
#X obj 139 -21 inlet;
#X connect 0 0 3 0;
#X connect 0 0 6 0;
#X connect 0 0 7 0;
#X connect 0 0 10 0;
#X connect 0 0 13 0;
#X connect 0 0 14 0;
#X connect 1 0 0 0;
#X connect 2 0 8 0;
#X connect 3 0 2 1;
#X connect 4 0 8 0;
#X connect 5 0 8 0;
#X connect 6 0 4 1;
#X connect 7 0 5 1;
#X connect 9 0 8 0;
#X connect 10 0 9 1;
#X connect 11 0 8 0;
#X connect 12 0 8 0;
#X connect 13 0 11 1;
#X connect 14 0 12 1;
#X connect 16 0 2 0;
#X connect 21 0 4 0;
#X connect 24 0 5 0;
#X connect 25 0 9 0;
#X connect 28 0 11 0;
#X connect 29 0 12 0;
#X connect 32 0 1 0;
#X coords 0 -1 1 1 115 27 2 100 100;
#X restore 907 84 pd FMB2CLCKSRC;
#X floatatom 483 1123 5 0 0 0 - - -, f 5;
#X obj 62 923 +~;
#N canvas 213 22 1280 752 Quantifier 0;
#X obj 104 527 outlet;
#X msg 183 8 0;
#X floatatom 104 462 3 0 0 0 - - -, f 3;
#X floatatom 128 463 3 0 0 0 - - -, f 3;
#X floatatom 151 463 3 0 0 0 - - -, f 3;
#X floatatom 174 463 3 0 0 0 - - -, f 3;
#X floatatom 197 464 3 0 0 0 - - -, f 3;
#X floatatom 219 464 3 0 0 0 - - -, f 3;
#X floatatom 242 464 3 0 0 0 - - -, f 3;
#X floatatom 265 464 3 0 0 0 - - -, f 3;
#X floatatom 288 464 3 0 0 0 - - -, f 3;
#X floatatom 311 465 3 0 0 0 - - -, f 3;
#X msg 282 8 3;
#X msg 314 8 4;
#X obj 106 123 bng 15 250 50 0 empty empty reset 0 20 0 10 -262144
-1 -1;
#X msg 351 9 5;
#X msg 386 9 6;
#X msg 417 9 7;
#X msg 450 9 8;
#X msg 482 9 9;
#X obj -279 495 f;
#X floatatom -279 516 3 0 0 0 - - -, f 3;
#X obj -357 354 bng 15 250 50 0 empty empty +1 17 7 0 10 -262144 -1
-1;
#X msg -306 470 0;
#X msg -273 470 1;
#X msg -240 469 -1;
#X obj -254 494 +;
#X obj -299 442 trigger b b b;
#X obj -298 422 trigger b b b;
#X obj -356 374 bng 15 250 50 0 empty empty -1 17 7 0 10 -262144 -1
-1;
#X floatatom -356 395 3 0 0 0 - - -, f 3;
#X obj -279 536 +;
#X obj -415 237 f;
#X floatatom -415 258 3 0 0 0 - - -, f 3;
#X obj -372 56 bng 15 250 50 0 empty empty +1 17 7 0 10 -262144 -1
-1;
#X msg -441 170 0;
#X msg -408 170 1;
#X msg -375 169 -1;
#X obj -390 236 +;
#X obj -434 142 trigger b b b;
#X obj -433 122 trigger b b b;
#X obj -371 76 bng 15 250 50 0 empty empty -1 17 7 0 10 -262144 -1
-1;
#X floatatom -371 97 3 0 0 0 - - -, f 3;
#X obj -415 278 +;
#N canvas 0 22 450 300 qtpm 0;
#X obj 158 183 f;
#X floatatom 158 204 3 0 0 0 - - -, f 3;
#X msg 48 156 0;
#X msg 176 120 1;
#X msg 312 125 -1;
#X obj 183 182 +;
#X obj 101 96 trigger b b b;
#X obj 237 100 trigger b b b;
#X obj 158 224 +;
#X obj 101 58 inlet;
#X obj 237 67 inlet;
#X obj 49 53 inlet;
#X obj 370 170 inlet;
#X obj 159 269 outlet;
#X connect 0 0 1 0;
#X connect 0 0 5 0;
#X connect 1 0 8 0;
#X connect 2 0 0 0;
#X connect 2 0 8 0;
#X connect 3 0 5 1;
#X connect 4 0 5 1;
#X connect 5 0 0 1;
#X connect 6 0 0 0;
#X connect 6 1 5 0;
#X connect 6 2 3 0;
#X connect 7 0 0 0;
#X connect 7 1 5 0;
#X connect 7 2 4 0;
#X connect 8 0 13 0;
#X connect 9 0 6 0;
#X connect 10 0 7 0;
#X connect 11 0 2 0;
#X connect 12 0 8 1;
#X restore -455 462 pd qtpm;
#X obj 143 104 bng 15 250 50 0 empty empty +1 17 7 0 10 -262144 -1
-1;
#X obj 143 124 bng 15 250 50 0 empty empty -1 17 7 0 10 -262144 -1
-1;
#X obj -97 125 bng 15 250 50 0 empty empty empty 17 7 0 10 -262144
-1 -1;
#X floatatom 143 142 3 0 0 0 - - -, f 3;
#N canvas 0 22 450 300 qtpm 0;
#X obj 158 183 f;
#X floatatom 158 204 3 0 0 0 - - -, f 3;
#X msg 48 156 0;
#X msg 176 120 1;
#X msg 312 125 -1;
#X obj 183 182 +;
#X obj 101 96 trigger b b b;
#X obj 237 100 trigger b b b;
#X obj 158 224 +;
#X obj 101 58 inlet;
#X obj 237 67 inlet;
#X obj 49 53 inlet;
#X obj 370 170 inlet;
#X obj 159 269 outlet;
#X connect 0 0 1 0;
#X connect 0 0 5 0;
#X connect 1 0 8 0;
#X connect 2 0 0 0;
#X connect 2 0 8 0;
#X connect 3 0 5 1;
#X connect 4 0 5 1;
#X connect 5 0 0 1;
#X connect 6 0 0 0;
#X connect 6 1 5 0;
#X connect 6 2 3 0;
#X connect 7 0 0 0;
#X connect 7 1 5 0;
#X connect 7 2 4 0;
#X connect 8 0 13 0;
#X connect 9 0 6 0;
#X connect 10 0 7 0;
#X connect 11 0 2 0;
#X connect 12 0 8 1;
#X restore -407 462 pd qtpm;
#X obj 173 104 bng 15 250 50 0 empty empty +1 17 7 0 10 -262144 -1
-1;
#X obj 173 124 bng 15 250 50 0 empty empty -1 17 7 0 10 -262144 -1
-1;
#X floatatom 173 142 3 0 0 0 - - -, f 3;
#N canvas 0 22 450 300 qtpm 0;
#X obj 158 183 f;
#X floatatom 158 204 3 0 0 0 - - -, f 3;
#X msg 48 156 0;
#X msg 176 120 1;
#X msg 312 125 -1;
#X obj 183 182 +;
#X obj 101 96 trigger b b b;
#X obj 237 100 trigger b b b;
#X obj 158 224 +;
#X obj 101 58 inlet;
#X obj 237 67 inlet;
#X obj 49 53 inlet;
#X obj 370 170 inlet;
#X obj 159 269 outlet;
#X connect 0 0 1 0;
#X connect 0 0 5 0;
#X connect 1 0 8 0;
#X connect 2 0 0 0;
#X connect 2 0 8 0;
#X connect 3 0 5 1;
#X connect 4 0 5 1;
#X connect 5 0 0 1;
#X connect 6 0 0 0;
#X connect 6 1 5 0;
#X connect 6 2 3 0;
#X connect 7 0 0 0;
#X connect 7 1 5 0;
#X connect 7 2 4 0;
#X connect 8 0 13 0;
#X connect 9 0 6 0;
#X connect 10 0 7 0;
#X connect 11 0 2 0;
#X connect 12 0 8 1;
#X restore -359 462 pd qtpm;
#X obj 205 104 bng 15 250 50 0 empty empty +1 17 7 0 10 -262144 -1
-1;
#X obj 205 124 bng 15 250 50 0 empty empty -1 17 7 0 10 -262144 -1
-1;
#X floatatom 205 142 3 0 0 0 - - -, f 3;
#X msg 218 8 1;
#X msg 249 8 2;
#N canvas 0 22 450 300 qtpm 0;
#X obj 158 183 f;
#X floatatom 158 204 3 0 0 0 - - -, f 3;
#X msg 48 156 0;
#X msg 176 120 1;
#X msg 312 125 -1;
#X obj 183 182 +;
#X obj 101 96 trigger b b b;
#X obj 237 100 trigger b b b;
#X obj 158 224 +;
#X obj 101 58 inlet;
#X obj 237 67 inlet;
#X obj 49 53 inlet;
#X obj 370 170 inlet;
#X obj 159 269 outlet;
#X connect 0 0 1 0;
#X connect 0 0 5 0;
#X connect 1 0 8 0;
#X connect 2 0 0 0;
#X connect 2 0 8 0;
#X connect 3 0 5 1;
#X connect 4 0 5 1;
#X connect 5 0 0 1;
#X connect 6 0 0 0;
#X connect 6 1 5 0;
#X connect 6 2 3 0;
#X connect 7 0 0 0;
#X connect 7 1 5 0;
#X connect 7 2 4 0;
#X connect 8 0 13 0;
#X connect 9 0 6 0;
#X connect 10 0 7 0;
#X connect 11 0 2 0;
#X connect 12 0 8 1;
#X restore -311 462 pd qtpm;
#X obj 239 104 bng 15 250 50 0 empty empty +1 17 7 0 10 -262144 -1
-1;
#X obj 239 124 bng 15 250 50 0 empty empty -1 17 7 0 10 -262144 -1
-1;
#X floatatom 239 142 3 0 0 0 - - -, f 3;
#N canvas 0 22 450 300 qtpm 0;
#X obj 158 183 f;
#X floatatom 158 204 3 0 0 0 - - -, f 3;
#X msg 48 156 0;
#X msg 176 120 1;
#X msg 312 125 -1;
#X obj 183 182 +;
#X obj 101 96 trigger b b b;
#X obj 237 100 trigger b b b;
#X obj 158 224 +;
#X obj 101 58 inlet;
#X obj 237 67 inlet;
#X obj 49 53 inlet;
#X obj 370 170 inlet;
#X obj 159 269 outlet;
#X connect 0 0 1 0;
#X connect 0 0 5 0;
#X connect 1 0 8 0;
#X connect 2 0 0 0;
#X connect 2 0 8 0;
#X connect 3 0 5 1;
#X connect 4 0 5 1;
#X connect 5 0 0 1;
#X connect 6 0 0 0;
#X connect 6 1 5 0;
#X connect 6 2 3 0;
#X connect 7 0 0 0;
#X connect 7 1 5 0;
#X connect 7 2 4 0;
#X connect 8 0 13 0;
#X connect 9 0 6 0;
#X connect 10 0 7 0;
#X connect 11 0 2 0;
#X connect 12 0 8 1;
#X restore -263 463 pd qtpm;
#X obj 269 104 bng 15 250 50 0 empty empty +1 17 7 0 10 -262144 -1
-1;
#X obj 269 124 bng 15 250 50 0 empty empty -1 17 7 0 10 -262144 -1
-1;
#X floatatom 269 142 3 0 0 0 - - -, f 3;
#N canvas 0 22 450 300 qtpm 0;
#X obj 158 183 f;
#X floatatom 158 204 3 0 0 0 - - -, f 3;
#X msg 48 156 0;
#X msg 176 120 1;
#X msg 312 125 -1;
#X obj 183 182 +;
#X obj 101 96 trigger b b b;
#X obj 237 100 trigger b b b;
#X obj 158 224 +;
#X obj 101 58 inlet;
#X obj 237 67 inlet;
#X obj 49 53 inlet;
#X obj 370 170 inlet;
#X obj 159 269 outlet;
#X connect 0 0 1 0;
#X connect 0 0 5 0;
#X connect 1 0 8 0;
#X connect 2 0 0 0;
#X connect 2 0 8 0;
#X connect 3 0 5 1;
#X connect 4 0 5 1;
#X connect 5 0 0 1;
#X connect 6 0 0 0;
#X connect 6 1 5 0;
#X connect 6 2 3 0;
#X connect 7 0 0 0;
#X connect 7 1 5 0;
#X connect 7 2 4 0;
#X connect 8 0 13 0;
#X connect 9 0 6 0;
#X connect 10 0 7 0;
#X connect 11 0 2 0;
#X connect 12 0 8 1;
#X restore -215 464 pd qtpm;
#X obj 300 104 bng 15 250 50 0 empty empty +1 17 7 0 10 -262144 -1
-1;
#X obj 300 124 bng 15 250 50 0 empty empty -1 17 7 0 10 -262144 -1
-1;
#X floatatom 300 142 3 0 0 0 - - -, f 3;
#N canvas 0 22 450 300 qtpm 0;
#X obj 158 183 f;
#X floatatom 158 204 3 0 0 0 - - -, f 3;
#X msg 48 156 0;
#X msg 176 120 1;
#X msg 312 125 -1;
#X obj 183 182 +;
#X obj 101 96 trigger b b b;
#X obj 237 100 trigger b b b;
#X obj 158 224 +;
#X obj 101 58 inlet;
#X obj 237 67 inlet;
#X obj 49 53 inlet;
#X obj 370 170 inlet;
#X obj 159 269 outlet;
#X connect 0 0 1 0;
#X connect 0 0 5 0;
#X connect 1 0 8 0;
#X connect 2 0 0 0;
#X connect 2 0 8 0;
#X connect 3 0 5 1;
#X connect 4 0 5 1;
#X connect 5 0 0 1;
#X connect 6 0 0 0;
#X connect 6 1 5 0;
#X connect 6 2 3 0;
#X connect 7 0 0 0;
#X connect 7 1 5 0;
#X connect 7 2 4 0;
#X connect 8 0 13 0;
#X connect 9 0 6 0;
#X connect 10 0 7 0;
#X connect 11 0 2 0;
#X connect 12 0 8 1;
#X restore -167 465 pd qtpm;
#X obj 332 104 bng 15 250 50 0 empty empty +1 17 7 0 10 -262144 -1
-1;
#X obj 332 124 bng 15 250 50 0 empty empty -1 17 7 0 10 -262144 -1
-1;
#X floatatom 332 142 3 0 0 0 - - -, f 3;
#N canvas 0 22 450 300 qtpm 0;
#X obj 158 183 f;
#X floatatom 158 204 3 0 0 0 - - -, f 3;
#X msg 48 156 0;
#X msg 176 120 1;
#X msg 312 125 -1;
#X obj 183 182 +;
#X obj 101 96 trigger b b b;
#X obj 237 100 trigger b b b;
#X obj 158 224 +;
#X obj 101 58 inlet;
#X obj 237 67 inlet;
#X obj 49 53 inlet;
#X obj 370 170 inlet;
#X obj 159 269 outlet;
#X connect 0 0 1 0;
#X connect 0 0 5 0;
#X connect 1 0 8 0;
#X connect 2 0 0 0;
#X connect 2 0 8 0;
#X connect 3 0 5 1;
#X connect 4 0 5 1;
#X connect 5 0 0 1;
#X connect 6 0 0 0;
#X connect 6 1 5 0;
#X connect 6 2 3 0;
#X connect 7 0 0 0;
#X connect 7 1 5 0;
#X connect 7 2 4 0;
#X connect 8 0 13 0;
#X connect 9 0 6 0;
#X connect 10 0 7 0;
#X connect 11 0 2 0;
#X connect 12 0 8 1;
#X restore -118 465 pd qtpm;
#X obj 364 104 bng 15 250 50 0 empty empty +1 17 7 0 10 -262144 -1
-1;
#X obj 364 124 bng 15 250 50 0 empty empty -1 17 7 0 10 -262144 -1
-1;
#X floatatom 364 142 3 0 0 0 - - -, f 3;
#N canvas 0 22 450 300 qtpm 0;
#X obj 158 183 f;
#X floatatom 158 204 3 0 0 0 - - -, f 3;
#X msg 48 156 0;
#X msg 176 120 1;
#X msg 312 125 -1;
#X obj 183 182 +;
#X obj 101 96 trigger b b b;
#X obj 237 100 trigger b b b;
#X obj 158 224 +;
#X obj 101 58 inlet;
#X obj 237 67 inlet;
#X obj 49 53 inlet;
#X obj 370 170 inlet;
#X obj 159 269 outlet;
#X connect 0 0 1 0;
#X connect 0 0 5 0;
#X connect 1 0 8 0;
#X connect 2 0 0 0;
#X connect 2 0 8 0;
#X connect 3 0 5 1;
#X connect 4 0 5 1;
#X connect 5 0 0 1;
#X connect 6 0 0 0;
#X connect 6 1 5 0;
#X connect 6 2 3 0;
#X connect 7 0 0 0;
#X connect 7 1 5 0;
#X connect 7 2 4 0;
#X connect 8 0 13 0;
#X connect 9 0 6 0;
#X connect 10 0 7 0;
#X connect 11 0 2 0;
#X connect 12 0 8 1;
#X restore -70 465 pd qtpm;
#X obj 395 104 bng 15 250 50 0 empty empty +1 17 7 0 10 -262144 -1
-1;
#X obj 395 124 bng 15 250 50 0 empty empty -1 17 7 0 10 -262144 -1
-1;
#X floatatom 395 142 3 0 0 0 - - -, f 3;
#N canvas 0 22 450 300 qtpm 0;
#X obj 158 183 f;
#X floatatom 158 204 3 0 0 0 - - -, f 3;
#X msg 48 156 0;
#X msg 176 120 1;
#X msg 312 125 -1;
#X obj 183 182 +;
#X obj 101 96 trigger b b b;
#X obj 237 100 trigger b b b;
#X obj 158 224 +;
#X obj 101 58 inlet;
#X obj 237 67 inlet;
#X obj 49 53 inlet;
#X obj 370 170 inlet;
#X obj 159 269 outlet;
#X connect 0 0 1 0;
#X connect 0 0 5 0;
#X connect 1 0 8 0;
#X connect 2 0 0 0;
#X connect 2 0 8 0;
#X connect 3 0 5 1;
#X connect 4 0 5 1;
#X connect 5 0 0 1;
#X connect 6 0 0 0;
#X connect 6 1 5 0;
#X connect 6 2 3 0;
#X connect 7 0 0 0;
#X connect 7 1 5 0;
#X connect 7 2 4 0;
#X connect 8 0 13 0;
#X connect 9 0 6 0;
#X connect 10 0 7 0;
#X connect 11 0 2 0;
#X connect 12 0 8 1;
#X restore -22 466 pd qtpm;
#X obj 426 104 bng 15 250 50 0 empty empty +1 17 7 0 10 -262144 -1
-1;
#X obj 426 124 bng 15 250 50 0 empty empty -1 17 7 0 10 -262144 -1
-1;
#X floatatom 426 142 3 0 0 0 - - -, f 3;
#X obj 74 376 bng 15 250 50 0 empty empty empty 17 7 0 10 -262144 -1
-1;
#X floatatom 338 464 3 0 0 0 - - -, f 3;
#X floatatom 362 465 3 0 0 0 - - -, f 3;
#X floatatom 385 465 3 0 0 0 - - -, f 3;
#X floatatom 408 465 3 0 0 0 - - -, f 3;
#X floatatom 431 466 3 0 0 0 - - -, f 3;
#X floatatom 453 466 3 0 0 0 - - -, f 3;
#X floatatom 476 466 3 0 0 0 - - -, f 3;
#X floatatom 499 466 3 0 0 0 - - -, f 3;
#X floatatom 522 466 3 0 0 0 - - -, f 3;
#X floatatom 545 467 3 0 0 0 - - -, f 3;
#X obj 444 -51 bng 15 250 50 0 empty empty reset 0 20 0 10 -262144
-1 -1;
#N canvas 0 22 450 300 qtpm 0;
#X obj 158 183 f;
#X floatatom 158 204 3 0 0 0 - - -, f 3;
#X msg 48 156 0;
#X msg 176 120 1;
#X msg 312 125 -1;
#X obj 183 182 +;
#X obj 101 96 trigger b b b;
#X obj 237 100 trigger b b b;
#X obj 158 224 +;
#X obj 101 58 inlet;
#X obj 237 67 inlet;
#X obj 49 53 inlet;
#X obj 370 170 inlet;
#X obj 159 269 outlet;
#X connect 0 0 1 0;
#X connect 0 0 5 0;
#X connect 1 0 8 0;
#X connect 2 0 0 0;
#X connect 2 0 8 0;
#X connect 3 0 5 1;
#X connect 4 0 5 1;
#X connect 5 0 0 1;
#X connect 6 0 0 0;
#X connect 6 1 5 0;
#X connect 6 2 3 0;
#X connect 7 0 0 0;
#X connect 7 1 5 0;
#X connect 7 2 4 0;
#X connect 8 0 13 0;
#X connect 9 0 6 0;
#X connect 10 0 7 0;
#X connect 11 0 2 0;
#X connect 12 0 8 1;
#X restore 875 376 pd qtpm;
#X obj 457 104 bng 15 250 50 0 empty empty +1 17 7 0 10 -262144 -1
-1;
#X obj 457 124 bng 15 250 50 0 empty empty -1 17 7 0 10 -262144 -1
-1;
#X obj 1008 2 bng 15 250 50 0 empty empty empty 17 7 0 10 -262144 -1
-1;
#X floatatom 457 142 3 0 0 0 - - -, f 3;
#N canvas 0 22 450 300 qtpm 0;
#X obj 158 183 f;
#X floatatom 158 204 3 0 0 0 - - -, f 3;
#X msg 48 156 0;
#X msg 176 120 1;
#X msg 312 125 -1;
#X obj 183 182 +;
#X obj 101 96 trigger b b b;
#X obj 237 100 trigger b b b;
#X obj 158 224 +;
#X obj 101 58 inlet;
#X obj 237 67 inlet;
#X obj 49 53 inlet;
#X obj 370 170 inlet;
#X obj 159 269 outlet;
#X connect 0 0 1 0;
#X connect 0 0 5 0;
#X connect 1 0 8 0;
#X connect 2 0 0 0;
#X connect 2 0 8 0;
#X connect 3 0 5 1;
#X connect 4 0 5 1;
#X connect 5 0 0 1;
#X connect 6 0 0 0;
#X connect 6 1 5 0;
#X connect 6 2 3 0;
#X connect 7 0 0 0;
#X connect 7 1 5 0;
#X connect 7 2 4 0;
#X connect 8 0 13 0;
#X connect 9 0 6 0;
#X connect 10 0 7 0;
#X connect 11 0 2 0;
#X connect 12 0 8 1;
#X restore 923 376 pd qtpm;
#X obj 487 104 bng 15 250 50 0 empty empty +1 17 7 0 10 -262144 -1
-1;
#X obj 487 124 bng 15 250 50 0 empty empty -1 17 7 0 10 -262144 -1
-1;
#X floatatom 487 142 3 0 0 0 - - -, f 3;
#N canvas 0 22 450 300 qtpm 0;
#X obj 158 183 f;
#X floatatom 158 204 3 0 0 0 - - -, f 3;
#X msg 48 156 0;
#X msg 176 120 1;
#X msg 312 125 -1;
#X obj 183 182 +;
#X obj 101 96 trigger b b b;
#X obj 237 100 trigger b b b;
#X obj 158 224 +;
#X obj 101 58 inlet;
#X obj 237 67 inlet;
#X obj 49 53 inlet;
#X obj 370 170 inlet;
#X obj 159 269 outlet;
#X connect 0 0 1 0;
#X connect 0 0 5 0;
#X connect 1 0 8 0;
#X connect 2 0 0 0;
#X connect 2 0 8 0;
#X connect 3 0 5 1;
#X connect 4 0 5 1;
#X connect 5 0 0 1;
#X connect 6 0 0 0;
#X connect 6 1 5 0;
#X connect 6 2 3 0;
#X connect 7 0 0 0;
#X connect 7 1 5 0;
#X connect 7 2 4 0;
#X connect 8 0 13 0;
#X connect 9 0 6 0;
#X connect 10 0 7 0;
#X connect 11 0 2 0;
#X connect 12 0 8 1;
#X restore 971 376 pd qtpm;
#X obj 519 104 bng 15 250 50 0 empty empty +1 17 7 0 10 -262144 -1
-1;
#X obj 519 124 bng 15 250 50 0 empty empty -1 17 7 0 10 -262144 -1
-1;
#X floatatom 519 142 3 0 0 0 - - -, f 3;
#N canvas 0 22 450 300 qtpm 0;
#X obj 158 183 f;
#X floatatom 158 204 3 0 0 0 - - -, f 3;
#X msg 48 156 0;
#X msg 176 120 1;
#X msg 312 125 -1;
#X obj 183 182 +;
#X obj 101 96 trigger b b b;
#X obj 237 100 trigger b b b;
#X obj 158 224 +;
#X obj 101 58 inlet;
#X obj 237 67 inlet;
#X obj 49 53 inlet;
#X obj 370 170 inlet;
#X obj 159 269 outlet;
#X connect 0 0 1 0;
#X connect 0 0 5 0;
#X connect 1 0 8 0;
#X connect 2 0 0 0;
#X connect 2 0 8 0;
#X connect 3 0 5 1;
#X connect 4 0 5 1;
#X connect 5 0 0 1;
#X connect 6 0 0 0;
#X connect 6 1 5 0;
#X connect 6 2 3 0;
#X connect 7 0 0 0;
#X connect 7 1 5 0;
#X connect 7 2 4 0;
#X connect 8 0 13 0;
#X connect 9 0 6 0;
#X connect 10 0 7 0;
#X connect 11 0 2 0;
#X connect 12 0 8 1;
#X restore 1019 376 pd qtpm;
#X obj 553 104 bng 15 250 50 0 empty empty +1 17 7 0 10 -262144 -1
-1;
#X obj 553 124 bng 15 250 50 0 empty empty -1 17 7 0 10 -262144 -1
-1;
#X floatatom 553 142 3 0 0 0 - - -, f 3;
#N canvas 0 22 450 300 qtpm 0;
#X obj 158 183 f;
#X floatatom 158 204 3 0 0 0 - - -, f 3;
#X msg 48 156 0;
#X msg 176 120 1;
#X msg 312 125 -1;
#X obj 183 182 +;
#X obj 101 96 trigger b b b;
#X obj 237 100 trigger b b b;
#X obj 158 224 +;
#X obj 101 58 inlet;
#X obj 237 67 inlet;
#X obj 49 53 inlet;
#X obj 370 170 inlet;
#X obj 159 269 outlet;
#X connect 0 0 1 0;
#X connect 0 0 5 0;
#X connect 1 0 8 0;
#X connect 2 0 0 0;
#X connect 2 0 8 0;
#X connect 3 0 5 1;
#X connect 4 0 5 1;
#X connect 5 0 0 1;
#X connect 6 0 0 0;
#X connect 6 1 5 0;
#X connect 6 2 3 0;
#X connect 7 0 0 0;
#X connect 7 1 5 0;
#X connect 7 2 4 0;
#X connect 8 0 13 0;
#X connect 9 0 6 0;
#X connect 10 0 7 0;
#X connect 11 0 2 0;
#X connect 12 0 8 1;
#X restore 1067 377 pd qtpm;
#X obj 583 104 bng 15 250 50 0 empty empty +1 17 7 0 10 -262144 -1
-1;
#X obj 583 124 bng 15 250 50 0 empty empty -1 17 7 0 10 -262144 -1
-1;
#X floatatom 583 142 3 0 0 0 - - -, f 3;
#N canvas 0 22 450 300 qtpm 0;
#X obj 158 183 f;
#X floatatom 158 204 3 0 0 0 - - -, f 3;
#X msg 48 156 0;
#X msg 176 120 1;
#X msg 312 125 -1;
#X obj 183 182 +;
#X obj 101 96 trigger b b b;
#X obj 237 100 trigger b b b;
#X obj 158 224 +;
#X obj 101 58 inlet;
#X obj 237 67 inlet;
#X obj 49 53 inlet;
#X obj 370 170 inlet;
#X obj 159 269 outlet;
#X connect 0 0 1 0;
#X connect 0 0 5 0;
#X connect 1 0 8 0;
#X connect 2 0 0 0;
#X connect 2 0 8 0;
#X connect 3 0 5 1;
#X connect 4 0 5 1;
#X connect 5 0 0 1;
#X connect 6 0 0 0;
#X connect 6 1 5 0;
#X connect 6 2 3 0;
#X connect 7 0 0 0;
#X connect 7 1 5 0;
#X connect 7 2 4 0;
#X connect 8 0 13 0;
#X connect 9 0 6 0;
#X connect 10 0 7 0;
#X connect 11 0 2 0;
#X connect 12 0 8 1;
#X restore 1115 378 pd qtpm;
#X obj 614 104 bng 15 250 50 0 empty empty +1 17 7 0 10 -262144 -1
-1;
#X obj 614 124 bng 15 250 50 0 empty empty -1 17 7 0 10 -262144 -1
-1;
#X floatatom 614 142 3 0 0 0 - - -, f 3;
#N canvas 0 22 450 300 qtpm 0;
#X obj 158 183 f;
#X floatatom 158 204 3 0 0 0 - - -, f 3;
#X msg 48 156 0;
#X msg 176 120 1;
#X msg 312 125 -1;
#X obj 183 182 +;
#X obj 101 96 trigger b b b;
#X obj 237 100 trigger b b b;
#X obj 158 224 +;
#X obj 101 58 inlet;
#X obj 237 67 inlet;
#X obj 49 53 inlet;
#X obj 370 170 inlet;
#X obj 159 269 outlet;
#X connect 0 0 1 0;
#X connect 0 0 5 0;
#X connect 1 0 8 0;
#X connect 2 0 0 0;
#X connect 2 0 8 0;
#X connect 3 0 5 1;
#X connect 4 0 5 1;
#X connect 5 0 0 1;
#X connect 6 0 0 0;
#X connect 6 1 5 0;
#X connect 6 2 3 0;
#X connect 7 0 0 0;
#X connect 7 1 5 0;
#X connect 7 2 4 0;
#X connect 8 0 13 0;
#X connect 9 0 6 0;
#X connect 10 0 7 0;
#X connect 11 0 2 0;
#X connect 12 0 8 1;
#X restore 1163 379 pd qtpm;
#X obj 646 104 bng 15 250 50 0 empty empty +1 17 7 0 10 -262144 -1
-1;
#X obj 646 124 bng 15 250 50 0 empty empty -1 17 7 0 10 -262144 -1
-1;
#X floatatom 646 142 3 0 0 0 - - -, f 3;
#N canvas 0 22 450 300 qtpm 0;
#X obj 158 183 f;
#X floatatom 158 204 3 0 0 0 - - -, f 3;
#X msg 48 156 0;
#X msg 176 120 1;
#X msg 312 125 -1;
#X obj 183 182 +;
#X obj 101 96 trigger b b b;
#X obj 237 100 trigger b b b;
#X obj 158 224 +;
#X obj 101 58 inlet;
#X obj 237 67 inlet;
#X obj 49 53 inlet;
#X obj 370 170 inlet;
#X obj 159 269 outlet;
#X connect 0 0 1 0;
#X connect 0 0 5 0;
#X connect 1 0 8 0;
#X connect 2 0 0 0;
#X connect 2 0 8 0;
#X connect 3 0 5 1;
#X connect 4 0 5 1;
#X connect 5 0 0 1;
#X connect 6 0 0 0;
#X connect 6 1 5 0;
#X connect 6 2 3 0;
#X connect 7 0 0 0;
#X connect 7 1 5 0;
#X connect 7 2 4 0;
#X connect 8 0 13 0;
#X connect 9 0 6 0;
#X connect 10 0 7 0;
#X connect 11 0 2 0;
#X connect 12 0 8 1;
#X restore 1212 379 pd qtpm;
#X obj 678 104 bng 15 250 50 0 empty empty +1 17 7 0 10 -262144 -1
-1;
#X obj 678 124 bng 15 250 50 0 empty empty -1 17 7 0 10 -262144 -1
-1;
#X floatatom 678 142 3 0 0 0 - - -, f 3;
#N canvas 0 22 450 300 qtpm 0;
#X obj 158 183 f;
#X floatatom 158 204 3 0 0 0 - - -, f 3;
#X msg 48 156 0;
#X msg 176 120 1;
#X msg 312 125 -1;
#X obj 183 182 +;
#X obj 101 96 trigger b b b;
#X obj 237 100 trigger b b b;
#X obj 158 224 +;
#X obj 101 58 inlet;
#X obj 237 67 inlet;
#X obj 49 53 inlet;
#X obj 370 170 inlet;
#X obj 159 269 outlet;
#X connect 0 0 1 0;
#X connect 0 0 5 0;
#X connect 1 0 8 0;
#X connect 2 0 0 0;
#X connect 2 0 8 0;
#X connect 3 0 5 1;
#X connect 4 0 5 1;
#X connect 5 0 0 1;
#X connect 6 0 0 0;
#X connect 6 1 5 0;
#X connect 6 2 3 0;
#X connect 7 0 0 0;
#X connect 7 1 5 0;
#X connect 7 2 4 0;
#X connect 8 0 13 0;
#X connect 9 0 6 0;
#X connect 10 0 7 0;
#X connect 11 0 2 0;
#X connect 12 0 8 1;
#X restore 1260 379 pd qtpm;
#X obj 709 104 bng 15 250 50 0 empty empty +1 17 7 0 10 -262144 -1
-1;
#X obj 709 124 bng 15 250 50 0 empty empty -1 17 7 0 10 -262144 -1
-1;
#X floatatom 709 142 3 0 0 0 - - -, f 3;
#N canvas 0 22 450 300 qtpm 0;
#X obj 158 183 f;
#X floatatom 158 204 3 0 0 0 - - -, f 3;
#X msg 48 156 0;
#X msg 176 120 1;
#X msg 312 125 -1;
#X obj 183 182 +;
#X obj 101 96 trigger b b b;
#X obj 237 100 trigger b b b;
#X obj 158 224 +;
#X obj 101 58 inlet;
#X obj 237 67 inlet;
#X obj 49 53 inlet;
#X obj 370 170 inlet;
#X obj 159 269 outlet;
#X connect 0 0 1 0;
#X connect 0 0 5 0;
#X connect 1 0 8 0;
#X connect 2 0 0 0;
#X connect 2 0 8 0;
#X connect 3 0 5 1;
#X connect 4 0 5 1;
#X connect 5 0 0 1;
#X connect 6 0 0 0;
#X connect 6 1 5 0;
#X connect 6 2 3 0;
#X connect 7 0 0 0;
#X connect 7 1 5 0;
#X connect 7 2 4 0;
#X connect 8 0 13 0;
#X connect 9 0 6 0;
#X connect 10 0 7 0;
#X connect 11 0 2 0;
#X connect 12 0 8 1;
#X restore 1308 380 pd qtpm;
#X obj 740 104 bng 15 250 50 0 empty empty +1 17 7 0 10 -262144 -1
-1;
#X obj 740 124 bng 15 250 50 0 empty empty -1 17 7 0 10 -262144 -1
-1;
#X floatatom 740 142 3 0 0 0 - - -, f 3;
#X obj 174 355 bng 15 250 50 0 empty empty empty 17 7 0 10 -262144
-1 -1;
#X msg 514 9 10;
#X msg 549 9 11;
#X msg 580 9 12;
#X msg 613 9 13;
#X msg 645 9 14;
#X msg 682 10 15;
#X msg 717 10 16;
#X msg 748 10 17;
#X msg 781 10 18;
#X msg 813 10 19;
#X obj 104 506 pack 0 0 0 0 0 0 0 0 0 0 0 0 0 0 0 0 0 0 0 0;
#X obj -21 27 loadbang;
#X connect 1 0 44 3;
#X connect 2 0 151 0;
#X connect 3 0 151 1;
#X connect 4 0 151 2;
#X connect 5 0 151 3;
#X connect 6 0 151 4;
#X connect 7 0 151 5;
#X connect 8 0 151 6;
#X connect 9 0 151 7;
#X connect 10 0 151 8;
#X connect 11 0 151 9;
#X connect 12 0 59 3;
#X connect 13 0 63 3;
#X connect 14 0 1 0;
#X connect 14 0 57 0;
#X connect 14 0 58 0;
#X connect 14 0 12 0;
#X connect 14 0 13 0;
#X connect 14 0 15 0;
#X connect 14 0 16 0;
#X connect 14 0 17 0;
#X connect 14 0 18 0;
#X connect 14 0 19 0;
#X connect 14 0 47 0;
#X connect 14 0 98 0;
#X connect 15 0 67 3;
#X connect 16 0 71 3;
#X connect 17 0 75 3;
#X connect 18 0 79 3;
#X connect 19 0 83 3;
#X connect 20 0 21 0;
#X connect 20 0 26 0;
#X connect 21 0 31 0;
#X connect 22 0 27 0;
#X connect 23 0 20 0;
#X connect 23 0 31 0;
#X connect 24 0 26 1;
#X connect 25 0 26 1;
#X connect 26 0 20 1;
#X connect 27 0 20 0;
#X connect 27 1 26 0;
#X connect 27 2 24 0;
#X connect 28 0 20 0;
#X connect 28 1 26 0;
#X connect 28 2 25 0;
#X connect 29 0 28 0;
#X connect 31 0 30 0;
#X connect 32 0 33 0;
#X connect 32 0 38 0;
#X connect 33 0 43 0;
#X connect 34 0 39 0;
#X connect 35 0 32 0;
#X connect 35 0 43 0;
#X connect 36 0 38 1;
#X connect 37 0 38 1;
#X connect 38 0 32 1;
#X connect 39 0 32 0;
#X connect 39 1 38 0;
#X connect 39 2 36 0;
#X connect 40 0 32 0;
#X connect 40 1 38 0;
#X connect 40 2 37 0;
#X connect 41 0 40 0;
#X connect 42 0 40 0;
#X connect 43 0 42 0;
#X connect 44 0 48 0;
#X connect 45 0 44 1;
#X connect 46 0 44 2;
#X connect 47 0 44 0;
#X connect 47 0 49 0;
#X connect 47 0 53 0;
#X connect 47 0 59 0;
#X connect 47 0 63 0;
#X connect 47 0 67 0;
#X connect 47 0 71 0;
#X connect 47 0 75 0;
#X connect 47 0 79 0;
#X connect 47 0 83 0;
#X connect 48 0 2 0;
#X connect 49 0 52 0;
#X connect 50 0 49 1;
#X connect 51 0 49 2;
#X connect 52 0 3 0;
#X connect 52 0 87 0;
#X connect 53 0 56 0;
#X connect 54 0 53 1;
#X connect 55 0 53 2;
#X connect 56 0 4 0;
#X connect 56 0 87 0;
#X connect 57 0 49 3;
#X connect 58 0 53 3;
#X connect 59 0 62 0;
#X connect 60 0 59 1;
#X connect 61 0 59 2;
#X connect 62 0 5 0;
#X connect 62 0 87 0;
#X connect 63 0 66 0;
#X connect 64 0 63 1;
#X connect 65 0 63 2;
#X connect 66 0 6 0;
#X connect 66 0 87 0;
#X connect 67 0 70 0;
#X connect 68 0 67 1;
#X connect 69 0 67 2;
#X connect 70 0 7 0;
#X connect 70 0 87 0;
#X connect 71 0 74 0;
#X connect 72 0 71 1;
#X connect 73 0 71 2;
#X connect 74 0 8 0;
#X connect 74 0 87 0;
#X connect 75 0 78 0;
#X connect 76 0 75 1;
#X connect 77 0 75 2;
#X connect 78 0 9 0;
#X connect 78 0 87 0;
#X connect 79 0 82 0;
#X connect 80 0 79 1;
#X connect 81 0 79 2;
#X connect 82 0 10 0;
#X connect 82 0 87 0;
#X connect 83 0 86 0;
#X connect 84 0 83 1;
#X connect 85 0 83 2;
#X connect 86 0 11 0;
#X connect 86 0 87 0;
#X connect 87 0 2 0;
#X connect 88 0 151 10;
#X connect 89 0 151 11;
#X connect 90 0 151 12;
#X connect 91 0 151 13;
#X connect 92 0 151 14;
#X connect 93 0 151 15;
#X connect 94 0 151 16;
#X connect 95 0 151 17;
#X connect 96 0 151 18;
#X connect 97 0 151 19;
#X connect 98 0 141 0;
#X connect 98 0 142 0;
#X connect 98 0 143 0;
#X connect 98 0 144 0;
#X connect 98 0 145 0;
#X connect 98 0 146 0;
#X connect 98 0 147 0;
#X connect 98 0 148 0;
#X connect 98 0 149 0;
#X connect 98 0 150 0;
#X connect 98 0 102 0;
#X connect 99 0 103 0;
#X connect 100 0 99 1;
#X connect 101 0 99 2;
#X connect 102 0 99 0;
#X connect 102 0 104 0;
#X connect 102 0 108 0;
#X connect 102 0 112 0;
#X connect 102 0 116 0;
#X connect 102 0 120 0;
#X connect 102 0 124 0;
#X connect 102 0 128 0;
#X connect 102 0 132 0;
#X connect 102 0 136 0;
#X connect 103 0 88 0;
#X connect 103 0 140 0;
#X connect 104 0 107 0;
#X connect 105 0 104 1;
#X connect 106 0 104 2;
#X connect 107 0 89 0;
#X connect 107 0 140 0;
#X connect 108 0 111 0;
#X connect 109 0 108 1;
#X connect 110 0 108 2;
#X connect 111 0 90 0;
#X connect 111 0 140 0;
#X connect 112 0 115 0;
#X connect 113 0 112 1;
#X connect 114 0 112 2;
#X connect 115 0 91 0;
#X connect 115 0 140 0;
#X connect 116 0 119 0;
#X connect 117 0 116 1;
#X connect 118 0 116 2;
#X connect 119 0 92 0;
#X connect 119 0 140 0;
#X connect 120 0 123 0;
#X connect 121 0 120 1;
#X connect 122 0 120 2;
#X connect 123 0 93 0;
#X connect 123 0 140 0;
#X connect 124 0 127 0;
#X connect 125 0 124 1;
#X connect 126 0 124 2;
#X connect 127 0 94 0;
#X connect 127 0 140 0;
#X connect 128 0 131 0;
#X connect 129 0 128 1;
#X connect 130 0 128 2;
#X connect 131 0 95 0;
#X connect 131 0 140 0;
#X connect 132 0 135 0;
#X connect 133 0 132 1;
#X connect 134 0 132 2;
#X connect 135 0 96 0;
#X connect 135 0 140 0;
#X connect 136 0 139 0;
#X connect 137 0 136 1;
#X connect 138 0 136 2;
#X connect 139 0 97 0;
#X connect 139 0 140 0;
#X connect 140 0 87 0;
#X connect 141 0 99 3;
#X connect 142 0 104 3;
#X connect 143 0 108 3;
#X connect 144 0 112 3;
#X connect 145 0 116 3;
#X connect 146 0 120 3;
#X connect 147 0 124 3;
#X connect 148 0 128 3;
#X connect 149 0 132 3;
#X connect 150 0 136 3;
#X connect 151 0 0 0;
#X connect 152 0 14 0;
#X coords 0 -1 1 1 670 60 2 100 100;
#X restore 7 322 pd Quantifier;
#N canvas 806 98 776 487 ppsq 0;
#X floatatom 28 243 3 0 0 0 - - -, f 3;
#X floatatom 95 331 5 0 0 0 - - -, f 5;
#X obj 271 42 f;
#X obj 299 42 + 1;
#X obj 17 40 bng 15 250 50 0 empty empty empty 17 7 0 10 -262144 -1
-1;
#X obj 273 99 select 0 1 2 3 4 5 6 7 8 9;
#X floatatom 51 243 3 0 0 0 - - -, f 3;
#X floatatom 74 244 3 0 0 0 - - -, f 3;
#X floatatom 97 244 3 0 0 0 - - -, f 3;
#X floatatom 120 245 3 0 0 0 - - -, f 3;
#X floatatom 143 245 3 0 0 0 - - -, f 3;
#X floatatom 166 246 3 0 0 0 - - -, f 3;
#X floatatom 189 246 3 0 0 0 - - -, f 3;
#X floatatom 212 246 3 0 0 0 - - -, f 3;
#X floatatom 235 246 3 0 0 0 - - -, f 3;
#X obj 97 368 outlet;
#X obj 16 12 inlet;
#X obj 72 63 inlet;
#X obj 270 71 %;
#X obj 30 97 unpack 0 0 0 0 0 0 0 0 0 0 0;
#X floatatom 202 122 3 0 0 0 - - -, f 3;
#X connect 0 0 1 0;
#X connect 1 0 15 0;
#X connect 2 0 3 0;
#X connect 2 0 18 0;
#X connect 3 0 2 1;
#X connect 4 0 2 0;
#X connect 5 0 0 0;
#X connect 5 1 6 0;
#X connect 5 2 7 0;
#X connect 5 3 8 0;
#X connect 5 4 9 0;
#X connect 5 5 10 0;
#X connect 5 6 11 0;
#X connect 5 7 12 0;
#X connect 5 8 13 0;
#X connect 5 9 14 0;
#X connect 6 0 1 0;
#X connect 7 0 1 0;
#X connect 8 0 1 0;
#X connect 9 0 1 0;
#X connect 10 0 1 0;
#X connect 11 0 1 0;
#X connect 12 0 1 0;
#X connect 13 0 1 0;
#X connect 14 0 1 0;
#X connect 16 0 4 0;
#X connect 17 0 19 0;
#X connect 18 0 5 0;
#X connect 19 0 0 0;
#X connect 19 1 6 0;
#X connect 19 2 7 0;
#X connect 19 3 8 0;
#X connect 19 4 9 0;
#X connect 19 5 10 0;
#X connect 19 6 11 0;
#X connect 19 7 12 0;
#X connect 19 8 13 0;
#X connect 19 9 14 0;
#X connect 19 10 18 1;
#X connect 19 10 20 0;
#X restore 483 1046 pd ppsq;
#X floatatom 483 1067 5 0 0 0 - - -, f 5;
#X obj 483 1027 bng 15 250 50 0 empty empty empty 17 7 0 10 -262144
-1 -1;
#X obj 395 203 s EDOIN1;
#X obj 807 331 r EDOOUT1;
#X obj 483 1102 +;
#X floatatom 419 161 5 0 0 0 - - -, f 5;
#X obj 162 923 +~;
#X obj 62 955 +~;
#X floatatom 177 852 5 0 0 0 - - -, f 5;
#X obj 177 715 vsl 15 128 0 1 0 0 empty empty FMB3 0 -9 0 10 -262144
-1 -1 0 1;
#X obj 162 890 *~;
#X floatatom 227 852 5 0 0 0 - - -, f 5;
#X obj 227 715 vsl 15 128 0 1 0 0 empty empty FMB4 0 -9 0 10 -262144
-1 -1 0 1;
#X obj 212 890 *~;
#X obj 162 869 r~ FMB3;
#X obj 212 869 r~ FMB4;
#N canvas 735 22 453 752 FMBELL2 0;
#X obj 323 559 *~;
#X obj 338 30 bng 15 250 50 0 empty empty empty 17 7 0 10 -262144 -1
-1;
#X obj 323 588 outlet~;
#X obj 338 1 inlet;
#X obj 151 131 vsl 15 50 0 2000 0 0 empty empty D 0 -9 0 10 -262144
-1 -1 4900 1;
#X obj 129 131 vsl 15 50 0 5000 0 0 empty empty X 0 -9 0 10 -262144
-1 -1 0 1;
#X obj 104 131 vsl 15 50 1 4 0 0 empty empty f1 0 -9 0 10 -262144 -1
-1 1333 1;
#X obj 31 13 inlet;
#X obj 132 50 loadbang;
#X msg 151 75 15;
#X msg 103 77 2;
#N canvas 633 22 600 601 FMiso 0;
#X obj 202 474 osc~;
#X obj 217 366 osc~;
#X floatatom 245 205 5 0 0 0 - - -, f 5;
#X floatatom 164 410 5 0 0 0 - - -, f 5;
#X obj 202 452 +~;
#X obj 217 429 *~;
#X floatatom 232 410 5 0 0 0 - - -, f 5;
#X floatatom 164 168 5 0 0 0 - - -, f 5;
#X obj 245 182 +;
#X floatatom 260 110 5 0 0 0 - - -, f 5;
#X obj 245 141 bng 15 250 50 0 empty empty empty 17 7 0 10 -262144
-1 -1;
#X obj 217 280 pack 0 0 0;
#X obj 217 324 line;
#X obj 183 227 bng 15 250 50 0 empty empty empty 17 7 0 10 -262144
-1 -1;
#X msg 217 302 \$1 \, \$2 \$3;
#X floatatom 217 240 5 0 0 0 - - -, f 5;
#X floatatom 217 345 5 0 0 0 - - -, f 5;
#X obj 164 124 *;
#X obj 164 84 bng 15 250 50 0 empty empty empty 17 7 0 10 -262144 -1
-1;
#X obj 179 46 i;
#X floatatom 179 67 5 0 0 0 - - -, f 5;
#X obj 274 236 loadbang;
#X msg 274 258 0;
#X obj 202 497 outlet~;
#X obj 232 389 inlet;
#X obj 105 93 inlet;
#X obj 164 4 inlet;
#X obj 328 210 inlet;
#X connect 0 0 23 0;
#X connect 1 0 5 0;
#X connect 2 0 11 1;
#X connect 3 0 4 0;
#X connect 4 0 0 0;
#X connect 5 0 4 1;
#X connect 6 0 5 1;
#X connect 7 0 8 0;
#X connect 7 0 3 0;
#X connect 7 0 15 0;
#X connect 8 0 2 0;
#X connect 9 0 8 1;
#X connect 9 0 10 0;
#X connect 9 0 17 0;
#X connect 10 0 8 0;
#X connect 11 0 14 0;
#X connect 12 0 16 0;
#X connect 13 0 11 0;
#X connect 14 0 12 0;
#X connect 15 0 11 0;
#X connect 16 0 1 0;
#X connect 17 0 7 0;
#X connect 18 0 17 0;
#X connect 19 0 20 0;
#X connect 20 0 17 1;
#X connect 21 0 22 0;
#X connect 22 0 11 2;
#X connect 24 0 6 0;
#X connect 25 0 9 0;
#X connect 26 0 19 0;
#X connect 26 0 18 0;
#X connect 27 0 13 0;
#X restore 31 439 pd FMiso;
#X floatatom 31 271 5 0 0 0 pitch - -, f 5;
#X floatatom 81 271 5 0 0 0 f1 - -, f 5;
#X floatatom 128 271 5 0 0 0 X - -, f 5;
#X obj 170 271 bng 15 250 50 0 empty empty empty 17 7 0 10 -262144
-1 -1;
#N canvas 541 104 211 198 ENVLP 0;
#X obj 23 79 pack 0 0 0;
#X obj 23 123 line;
#X msg 23 101 \$1 \, \$2 \$3;
#X floatatom 80 57 5 0 0 0 - - -, f 5;
#X floatatom 23 144 5 0 0 0 - - -, f 5;
#X msg 51 56 0;
#X msg 23 56 1;
#X msg 123 106 2;
#X obj 123 23 loadbang;
#X obj 23 163 outlet;
#X obj 23 23 inlet;
#X obj 80 23 inlet;
#X connect 0 0 2 0;
#X connect 1 0 4 0;
#X connect 2 0 1 0;
#X connect 3 0 0 2;
#X connect 4 0 9 0;
#X connect 5 0 0 1;
#X connect 6 0 0 0;
#X connect 7 0 1 2;
#X connect 8 0 7 0;
#X connect 8 0 5 0;
#X connect 8 0 6 0;
#X connect 10 0 6 0;
#X connect 11 0 3 0;
#X restore 338 367 pd ENVLP;
#N canvas 820 22 458 490 Triangle 0;
#X floatatom 28 57 5 0 0 0 - - -, f 5;
#X obj 28 117 phasor~;
#X obj 101 117 phasor~;
#X obj 101 140 *~ -1;
#X obj 86 375 +~;
#X obj 101 162 +~ 1;
#X obj 101 350 clip~ 0 0.5;
#X obj 28 350 clip~ 0 0.5;
#X msg 140 57 0;
#X obj 86 439 outlet~;
#X obj 28 35 inlet;
#X obj 140 9 loadbang;
#X obj 86 396 -~ 0.75;
#X obj 86 418 *~ 2;
#X obj 28 140 *~ 1;
#X obj 28 162 +~ 0;
#X obj 101 184 *~ 1;
#X obj 101 206 +~ 0;
#X floatatom 236 208 5 0 0 0 - - -, f 5;
#X floatatom 236 249 5 0 0 0 - - -, f 5;
#X obj 236 227 expr 0.5/((0.5/$f1)*((2*$f1)-1));
#X obj 28 321 *~;
#X obj 101 321 *~;
#X obj 279 123 inlet;
#X msg 236 132 1;
#X obj 279 166 + 1;
#X obj 279 145 * 0.004;
#X connect 0 0 1 0;
#X connect 0 0 2 0;
#X connect 1 0 14 0;
#X connect 2 0 3 0;
#X connect 3 0 5 0;
#X connect 4 0 12 0;
#X connect 5 0 16 0;
#X connect 6 0 4 1;
#X connect 7 0 4 0;
#X connect 8 0 1 1;
#X connect 8 0 2 1;
#X connect 10 0 0 0;
#X connect 11 0 8 0;
#X connect 11 0 24 0;
#X connect 12 0 13 0;
#X connect 13 0 9 0;
#X connect 14 0 15 0;
#X connect 15 0 21 0;
#X connect 16 0 17 0;
#X connect 17 0 22 0;
#X connect 18 0 20 0;
#X connect 18 0 21 1;
#X connect 19 0 22 1;
#X connect 20 0 19 0;
#X connect 21 0 7 0;
#X connect 22 0 6 0;
#X connect 23 0 26 0;
#X connect 24 0 18 0;
#X connect 25 0 18 0;
#X connect 26 0 25 0;
#X restore 31 422 pd Triangle;
#N canvas 0 22 450 300 PWMSquare 0;
#X obj 124 119 phasor~;
#X obj 124 140 expr~ $v1 > $v2;
#X obj 124 164 +~ -0.5;
#X obj 124 187 *~ 1.8;
#X obj 124 210 outlet~;
#X obj 124 98 inlet;
#X obj 210 50 inlet;
#X obj 211 72 / 5000;
#X obj 211 94 * 0.8;
#X obj 211 116 + 0.1;
#X connect 0 0 1 0;
#X connect 1 0 2 0;
#X connect 2 0 3 0;
#X connect 3 0 4 0;
#X connect 5 0 0 0;
#X connect 6 0 7 0;
#X connect 7 0 8 0;
#X connect 8 0 9 0;
#X connect 9 0 1 1;
#X restore 31 388 pd PWMSquare;
#N canvas 206 64 509 357 SineMorph 0;
#X obj 221 170 expr if($f1 <= 0.5 \, $f1 \, 0.5) \;;
#X floatatom 11 149 5 0 0 0 - - -, f 5;
#X obj 109 183 osc~;
#X obj 109 237 *~;
#X obj 60 183 osc~;
#X obj 60 237 *~;
#X obj 11 183 osc~;
#X obj 11 237 *~;
#X obj 11 163 * 1;
#X obj 11 273 +~;
#X obj 11 301 +~;
#X msg 32 92 0;
#X obj 109 163 * -3;
#X msg 130 92 0.5;
#X obj 130 77 bng 15 250 50 0 empty empty empty 17 7 0 10 -262144 -1
-1;
#X msg 81 92 0.25;
#X obj 60 163 * 2;
#X obj 221 143 expr if($f1 <= 0.5 \, 0 \, ($f1-0.5)*0.333*2) \;;
#X obj 11 322 outlet~;
#X obj 11 37 inlet;
#X obj 130 18 loadbang;
#X obj 221 101 inlet;
#X msg 26 72 1;
#X obj 221 122 / 5000;
#X connect 0 0 3 1;
#X connect 1 0 8 0;
#X connect 1 0 12 0;
#X connect 1 0 16 0;
#X connect 2 0 3 0;
#X connect 3 0 10 1;
#X connect 4 0 5 0;
#X connect 5 0 9 1;
#X connect 6 0 7 0;
#X connect 7 0 9 0;
#X connect 8 0 6 0;
#X connect 9 0 10 0;
#X connect 10 0 18 0;
#X connect 11 0 6 1;
#X connect 12 0 2 0;
#X connect 13 0 2 1;
#X connect 14 0 13 0;
#X connect 14 0 11 0;
#X connect 14 0 15 0;
#X connect 15 0 4 1;
#X connect 16 0 4 0;
#X connect 17 0 5 1;
#X connect 19 0 1 0;
#X connect 20 0 14 0;
#X connect 20 0 22 0;
#X connect 21 0 23 0;
#X connect 22 0 7 1;
#X connect 23 0 17 0;
#X connect 23 0 0 0;
#X restore 31 405 pd SineMorph;
#X obj 176 126 vradio 15 1 0 4 empty empty empty 0 -8 0 10 -262144
-1 -1 1;
#X floatatom 194 271 5 0 0 0 - - -, f 5;
#X obj 194 304 select 0 1 2 3;
#X obj 137 494 *~;
#X obj 181 494 *~;
#X obj 225 494 *~;
#X obj 269 494 *~;
#X floatatom 152 427 5 0 0 0 - - -, f 5;
#X floatatom 196 427 5 0 0 0 - - -, f 5;
#X floatatom 240 427 5 0 0 0 - - -, f 5;
#X floatatom 284 427 5 0 0 0 - - -, f 5;
#X obj 194 338 bng 15 250 50 0 empty empty empty 17 7 0 10 -262144
-1 -1;
#X obj 214 338 bng 15 250 50 0 empty empty empty 17 7 0 10 -262144
-1 -1;
#X obj 234 338 bng 15 250 50 0 empty empty empty 17 7 0 10 -262144
-1 -1;
#X obj 254 338 bng 15 250 50 0 empty empty empty 17 7 0 10 -262144
-1 -1;
#X msg 144 368 1, f 2;
#X msg 168 368 0, f 2;
#X msg 191 368 1, f 2;
#X msg 215 368 0, f 2;
#X msg 239 368 1, f 2;
#X msg 263 368 0, f 2;
#X msg 287 368 1, f 2;
#X msg 311 368 0, f 2;
#X obj 198 525 +~;
#X obj 220 525 +~;
#X obj 208 542 +~;
#X connect 0 0 2 0;
#X connect 1 0 16 0;
#X connect 1 0 15 0;
#X connect 3 0 1 0;
#X connect 4 0 16 1;
#X connect 5 0 14 0;
#X connect 6 0 13 0;
#X connect 7 0 12 0;
#X connect 7 0 1 0;
#X connect 8 0 10 0;
#X connect 8 0 9 0;
#X connect 9 0 4 0;
#X connect 10 0 6 0;
#X connect 11 0 23 0;
#X connect 12 0 11 0;
#X connect 12 0 17 0;
#X connect 12 0 19 0;
#X connect 12 0 18 0;
#X connect 13 0 11 1;
#X connect 14 0 11 2;
#X connect 14 0 17 1;
#X connect 14 0 19 1;
#X connect 14 0 18 1;
#X connect 15 0 11 3;
#X connect 16 0 0 1;
#X connect 17 0 24 0;
#X connect 18 0 26 0;
#X connect 19 0 25 0;
#X connect 20 0 21 0;
#X connect 21 0 22 0;
#X connect 22 0 31 0;
#X connect 22 1 32 0;
#X connect 22 2 33 0;
#X connect 22 3 34 0;
#X connect 23 0 43 0;
#X connect 24 0 43 1;
#X connect 25 0 44 0;
#X connect 26 0 44 1;
#X connect 27 0 23 1;
#X connect 28 0 24 1;
#X connect 29 0 25 1;
#X connect 30 0 26 1;
#X connect 31 0 35 0;
#X connect 31 0 36 0;
#X connect 32 0 37 0;
#X connect 32 0 38 0;
#X connect 33 0 39 0;
#X connect 33 0 40 0;
#X connect 34 0 41 0;
#X connect 34 0 42 0;
#X connect 35 0 27 0;
#X connect 36 0 28 0;
#X connect 36 0 29 0;
#X connect 36 0 30 0;
#X connect 37 0 28 0;
#X connect 38 0 29 0;
#X connect 38 0 30 0;
#X connect 38 0 27 0;
#X connect 39 0 29 0;
#X connect 40 0 30 0;
#X connect 40 0 28 0;
#X connect 40 0 27 0;
#X connect 41 0 30 0;
#X connect 42 0 29 0;
#X connect 42 0 28 0;
#X connect 42 0 27 0;
#X connect 43 0 45 0;
#X connect 44 0 45 1;
#X connect 45 0 0 0;
#X coords 0 -1 1 1 100 90 1 100 100;
#X restore 938 385 pd FMBELL2;
#X obj 1051 485 s~ FMB3;
#X obj 1106 486 s~ FMB4;
#N canvas 485 112 619 568 FMB2CLCKSRC 0;
#X floatatom -40 159 5 0 0 0 - - -, f 5;
#X obj 103 105 hradio 18 1 0 6 empty empty empty 0 -8 0 10 -262144
-1 -1 1;
#X obj -128 227 spigot;
#X obj -102 199 == 0;
#X obj -67 227 spigot;
#X obj -10 228 spigot;
#X obj -36 199 == 1;
#X obj 21 200 == 2;
#X obj -72 325 outlet;
#X obj 42 230 spigot;
#X obj 62 201 == 3;
#X obj 96 230 spigot;
#X obj 148 232 spigot;
#X obj 127 202 == 4;
#X obj 168 203 == 5;
#X obj -107 46 r CM1;
#X obj -120 104 r CM2;
#X obj -118 144 r CM3;
#X obj -108 -3 r CM4;
#X obj -29 -23 r CPR1;
#X obj -29 0 r CPR2;
#X obj -65 108 r CPR3;
#X obj -30 45 r CPR4;
#X obj -4 95 r CPR5;
#X obj -1 130 r CPR6;
#X obj 56 157 r CPR7;
#X obj 21 45 r CPR8;
#X obj 72 -25 r CPR9;
#X obj 107 162 r CPR10;
#X obj 168 166 r CPR12;
#X obj 71 43 r CPR16;
#X obj -132 348 bng 15 250 50 0 empty empty empty 17 7 0 10 -262144
-1 -1;
#X obj 139 -21 inlet;
#X connect 0 0 3 0;
#X connect 0 0 6 0;
#X connect 0 0 7 0;
#X connect 0 0 10 0;
#X connect 0 0 13 0;
#X connect 0 0 14 0;
#X connect 1 0 0 0;
#X connect 2 0 8 0;
#X connect 3 0 2 1;
#X connect 4 0 8 0;
#X connect 5 0 8 0;
#X connect 6 0 4 1;
#X connect 7 0 5 1;
#X connect 9 0 8 0;
#X connect 10 0 9 1;
#X connect 11 0 8 0;
#X connect 12 0 8 0;
#X connect 13 0 11 1;
#X connect 14 0 12 1;
#X connect 18 0 2 0;
#X connect 21 0 4 0;
#X connect 24 0 5 0;
#X connect 25 0 9 0;
#X connect 28 0 11 0;
#X connect 29 0 12 0;
#X connect 32 0 1 0;
#X coords 0 -1 1 1 115 27 2 100 100;
#X restore 768 23 pd FMB2CLCKSRC;
#X msg 522 1003 10;
#X msg 522 1025 0 10 3 4 0 10 0 8 6 10 \$1;
#X obj 114 454 r EDOIN3;
#X obj 354 254 s EDOIN3;
#X obj 48 586 s EDOOUT3;
#X obj 938 336 r EDOOUT3;
#N canvas 324 22 605 661 partitionread 0;
#X msg -134 32 read test.txt;
#X obj -134 76 qlist;
#X msg -191 93 next;
#X msg -134 54 bang;
#X obj -134 143 r seq1;
#X obj -119 160 r seq2;
#X obj -104 177 r seq3;
#X obj -89 194 r seq4;
#X obj -73 211 r seq5;
#X obj -58 228 r seq6;
#X obj -43 245 r seq7;
#X obj -27 262 r seq8;
#X obj -12 279 r seq9;
#X obj 3 296 r seq10;
#X obj -134 369 outlet;
#X obj -134 344 pack 0 0 0 0 0 0 0 0 0 0 0;
#X obj 19 313 r seql;
#X obj 73 378 outlet;
#X obj 73 353 pack 0 0 0 0 0 0 0 0 0 0 0;
#X obj 226 322 r seql;
#X obj 73 152 r w1;
#X obj 88 169 r w2;
#X obj 103 186 r w3;
#X obj 118 203 r w4;
#X obj 134 220 r w5;
#X obj 149 237 r w6;
#X obj 164 254 r w7;
#X obj 180 271 r w8;
#X obj 195 288 r w9;
#X obj 210 305 r w10;
#X connect 0 0 1 0;
#X connect 3 0 1 0;
#X connect 4 0 15 0;
#X connect 5 0 15 1;
#X connect 6 0 15 2;
#X connect 7 0 15 3;
#X connect 8 0 15 4;
#X connect 9 0 15 5;
#X connect 10 0 15 6;
#X connect 11 0 15 7;
#X connect 12 0 15 8;
#X connect 13 0 15 9;
#X connect 15 0 14 0;
#X connect 16 0 15 10;
#X connect 18 0 17 0;
#X connect 19 0 18 10;
#X connect 20 0 18 0;
#X connect 21 0 18 1;
#X connect 22 0 18 2;
#X connect 23 0 18 3;
#X connect 24 0 18 4;
#X connect 25 0 18 5;
#X connect 26 0 18 6;
#X connect 27 0 18 7;
#X connect 28 0 18 8;
#X connect 29 0 18 9;
#X restore 934 2 pd partitionread;
#X obj 817 931 r CPR1;
#X obj 817 954 bng 15 250 50 0 empty empty empty 17 7 0 10 -262144
-1 -1;
#X obj 817 977 f;
#X obj 847 977 + 1;
#X obj 817 1001 % 2;
#X floatatom 817 1025 5 0 0 0 - - -, f 5;
#X obj 817 1044 == 1;
#X obj 817 1093 bng 15 250 50 0 empty empty empty 17 7 0 10 -262144
-1 -1;
#X obj 817 1071 spigot;
#X obj 817 1114 f;
#X obj 847 1114 + 1;
#X obj 817 1138 % 10;
#X obj 817 1161 select 0 1 2 3 4 5 6 7 8 9;
#N canvas 59 156 445 299 ppsqok 0;
#X floatatom 30 176 3 0 0 0 - - -, f 3;
#X floatatom 30 217 5 0 0 0 - - -, f 5;
#X obj 234 42 f;
#X obj 262 42 + 1;
#X obj 4 27 bng 15 250 50 0 empty empty empty 17 7 0 10 -262144 -1
-1;
#X obj 234 132 select 0 1 2 3 4 5 6 7 8 9;
#X floatatom 53 176 3 0 0 0 - - -, f 3;
#X floatatom 76 177 3 0 0 0 - - -, f 3;
#X floatatom 99 177 3 0 0 0 - - -, f 3;
#X floatatom 122 178 3 0 0 0 - - -, f 3;
#X floatatom 145 178 3 0 0 0 - - -, f 3;
#X floatatom 168 179 3 0 0 0 - - -, f 3;
#X floatatom 191 179 3 0 0 0 - - -, f 3;
#X floatatom 214 179 3 0 0 0 - - -, f 3;
#X floatatom 237 179 3 0 0 0 - - -, f 3;
#X obj 30 242 outlet;
#X obj 4 5 inlet;
#X obj 30 48 inlet;
#X obj 234 108 %;
#X obj 30 70 unpack 0 0 0 0 0 0 0 0 0 0 0;
#X floatatom 249 87 3 0 0 0 - - -, f 3;
#X connect 0 0 1 0;
#X connect 1 0 15 0;
#X connect 2 0 3 0;
#X connect 2 0 18 0;
#X connect 3 0 2 1;
#X connect 4 0 2 0;
#X connect 5 0 0 0;
#X connect 5 1 6 0;
#X connect 5 2 7 0;
#X connect 5 3 8 0;
#X connect 5 4 9 0;
#X connect 5 5 10 0;
#X connect 5 6 11 0;
#X connect 5 7 12 0;
#X connect 5 8 13 0;
#X connect 5 9 14 0;
#X connect 6 0 1 0;
#X connect 7 0 1 0;
#X connect 8 0 1 0;
#X connect 9 0 1 0;
#X connect 10 0 1 0;
#X connect 11 0 1 0;
#X connect 12 0 1 0;
#X connect 13 0 1 0;
#X connect 14 0 1 0;
#X connect 16 0 4 0;
#X connect 17 0 19 0;
#X connect 18 0 5 0;
#X connect 19 0 0 0;
#X connect 19 1 6 0;
#X connect 19 2 7 0;
#X connect 19 3 8 0;
#X connect 19 4 9 0;
#X connect 19 5 10 0;
#X connect 19 6 11 0;
#X connect 19 7 12 0;
#X connect 19 8 13 0;
#X connect 19 9 14 0;
#X connect 19 10 20 0;
#X connect 20 0 18 1;
#X restore 778 290 pd ppsqok;
#X floatatom 498 1084 5 0 0 0 - - -, f 5;
#N canvas 59 156 445 299 ppsqok 0;
#X floatatom 30 176 3 0 0 0 - - -, f 3;
#X floatatom 30 217 5 0 0 0 - - -, f 5;
#X obj 234 42 f;
#X obj 262 42 + 1;
#X obj 4 27 bng 15 250 50 0 empty empty empty 17 7 0 10 -262144 -1
-1;
#X obj 234 132 select 0 1 2 3 4 5 6 7 8 9;
#X floatatom 53 176 3 0 0 0 - - -, f 3;
#X floatatom 76 177 3 0 0 0 - - -, f 3;
#X floatatom 99 177 3 0 0 0 - - -, f 3;
#X floatatom 122 178 3 0 0 0 - - -, f 3;
#X floatatom 145 178 3 0 0 0 - - -, f 3;
#X floatatom 168 179 3 0 0 0 - - -, f 3;
#X floatatom 191 179 3 0 0 0 - - -, f 3;
#X floatatom 214 179 3 0 0 0 - - -, f 3;
#X floatatom 237 179 3 0 0 0 - - -, f 3;
#X obj 30 242 outlet;
#X obj 4 5 inlet;
#X obj 30 48 inlet;
#X obj 234 108 %;
#X obj 30 70 unpack 0 0 0 0 0 0 0 0 0 0 0;
#X floatatom 249 87 3 0 0 0 - - -, f 3;
#X connect 0 0 1 0;
#X connect 1 0 15 0;
#X connect 2 0 3 0;
#X connect 2 0 18 0;
#X connect 3 0 2 1;
#X connect 4 0 2 0;
#X connect 5 0 0 0;
#X connect 5 1 6 0;
#X connect 5 2 7 0;
#X connect 5 3 8 0;
#X connect 5 4 9 0;
#X connect 5 5 10 0;
#X connect 5 6 11 0;
#X connect 5 7 12 0;
#X connect 5 8 13 0;
#X connect 5 9 14 0;
#X connect 6 0 1 0;
#X connect 7 0 1 0;
#X connect 8 0 1 0;
#X connect 9 0 1 0;
#X connect 10 0 1 0;
#X connect 11 0 1 0;
#X connect 12 0 1 0;
#X connect 13 0 1 0;
#X connect 14 0 1 0;
#X connect 16 0 4 0;
#X connect 17 0 19 0;
#X connect 18 0 5 0;
#X connect 19 0 0 0;
#X connect 19 1 6 0;
#X connect 19 2 7 0;
#X connect 19 3 8 0;
#X connect 19 4 9 0;
#X connect 19 5 10 0;
#X connect 19 6 11 0;
#X connect 19 7 12 0;
#X connect 19 8 13 0;
#X connect 19 9 14 0;
#X connect 19 10 20 0;
#X connect 20 0 18 1;
#X restore 382 104 pd ppsqok;
#X obj 382 146 +;
#N canvas 374 22 702 639 FMB2CLCKSRC 0;
#X obj 72 631 outlet;
#X obj 72 141 r CPR1;
#X obj 105 117 tgl 15 0 empty empty 1 4 -7 0 10 -262144 -1 -1 1 1;
#X obj 72 162 spigot;
#X obj 124 117 tgl 15 0 empty empty 2 4 -7 0 10 -262144 -1 -1 0 1;
#X obj 91 203 spigot;
#X obj 91 182 r CPR2;
#X obj 143 117 tgl 15 0 empty empty 3 4 -7 0 10 -262144 -1 -1 1 1;
#X obj 110 244 spigot;
#X obj 110 223 r CPR3;
#X obj 162 117 tgl 15 0 empty empty 4 4 -7 0 10 -262144 -1 -1 1 1;
#X obj 129 285 spigot;
#X obj 129 264 r CPR4;
#X obj 181 117 tgl 15 0 empty empty 5 4 -7 0 10 -262144 -1 -1 1 1;
#X obj 148 326 spigot;
#X obj 200 117 tgl 15 0 empty empty 6 4 -7 0 10 -262144 -1 -1 0 1;
#X obj 167 367 spigot;
#X obj 219 117 tgl 15 0 empty empty 7 4 -7 0 10 -262144 -1 -1 0 1;
#X obj 186 408 spigot;
#X obj 238 117 tgl 15 0 empty empty 8 4 -7 0 10 -262144 -1 -1 0 1;
#X obj 205 449 spigot;
#X obj 148 305 r CPR5;
#X obj 167 346 r CPR6;
#X obj 186 387 r CPR7;
#X obj 205 428 r CPR8;
#X obj 257 117 tgl 15 0 empty empty 9 4 -7 0 10 -262144 -1 -1 0 1;
#X obj 224 491 spigot;
#X obj 276 117 tgl 15 0 empty empty 10 4 -7 0 10 -262144 -1 -1 0 1
;
#X obj 243 532 spigot;
#X obj 295 117 tgl 15 0 empty empty 12 4 -7 0 10 -262144 -1 -1 0 1
;
#X obj 262 573 spigot;
#X obj 314 117 tgl 15 0 empty empty 16 4 -7 0 10 -262144 -1 -1 0 1
;
#X obj 281 614 spigot;
#X obj 224 470 r CPR9;
#X obj 243 511 r CPR10;
#X obj 262 552 r CPR12;
#X obj 281 593 r CPR16;
#X connect 1 0 3 0;
#X connect 2 0 3 1;
#X connect 3 0 0 0;
#X connect 4 0 5 1;
#X connect 5 0 0 0;
#X connect 6 0 5 0;
#X connect 7 0 8 1;
#X connect 8 0 0 0;
#X connect 9 0 8 0;
#X connect 10 0 11 1;
#X connect 11 0 0 0;
#X connect 12 0 11 0;
#X connect 13 0 14 1;
#X connect 14 0 0 0;
#X connect 15 0 16 1;
#X connect 16 0 0 0;
#X connect 17 0 18 1;
#X connect 18 0 0 0;
#X connect 19 0 20 1;
#X connect 20 0 0 0;
#X connect 21 0 14 0;
#X connect 22 0 16 0;
#X connect 23 0 18 0;
#X connect 24 0 20 0;
#X connect 25 0 26 1;
#X connect 26 0 0 0;
#X connect 27 0 28 1;
#X connect 28 0 0 0;
#X connect 29 0 30 1;
#X connect 30 0 0 0;
#X connect 31 0 32 1;
#X connect 32 0 0 0;
#X connect 33 0 26 0;
#X connect 34 0 28 0;
#X connect 35 0 30 0;
#X connect 36 0 32 0;
#X coords 0 -1 1 1 238 37 2 100 100;
#X restore 382 38 pd FMB2CLCKSRC;
#X obj 934 23 s metapartition;
#X obj 433 82 r metapartition;
#N canvas 686 22 486 602 ppsqt 0;
#X obj 242 35 r CPR1;
#X obj 242 58 bng 15 250 50 0 empty empty empty 17 7 0 10 -262144 -1
-1;
#X obj 242 81 f;
#X obj 272 81 + 1;
#X floatatom 242 129 5 0 0 0 - - -, f 5;
#X obj 242 175 spigot;
#X floatatom 39 375 3 0 0 0 - - -, f 3;
#X floatatom 39 407 5 0 0 0 - - -, f 5;
#X obj 242 223 f;
#X obj 270 223 + 1;
#X obj 242 198 bng 15 250 50 0 empty empty empty 17 7 0 10 -262144
-1 -1;
#X obj 242 335 select 0 1 2 3 4 5 6 7 8 9;
#X floatatom 63 375 3 0 0 0 - - -, f 3;
#X floatatom 86 375 3 0 0 0 - - -, f 3;
#X floatatom 109 375 3 0 0 0 - - -, f 3;
#X floatatom 132 375 3 0 0 0 - - -, f 3;
#X floatatom 155 375 3 0 0 0 - - -, f 3;
#X floatatom 178 375 3 0 0 0 - - -, f 3;
#X floatatom 201 375 3 0 0 0 - - -, f 3;
#X floatatom 224 375 3 0 0 0 - - -, f 3;
#X floatatom 247 375 3 0 0 0 - - -, f 3;
#X obj 39 453 outlet;
#X obj 39 254 inlet;
#X obj 242 314 %;
#X obj 39 278 unpack 0 0 0 0 0 0 0 0 0 0 0;
#X floatatom 257 295 3 0 0 0 - - -, f 3;
#X floatatom 265 260 3 0 0 0 - - -, f 3;
#X floatatom 192 167 3 0 0 0 - - -, f 3;
#X obj 242 105 % 4;
#X obj 242 148 == 0;
#X obj 39 427 % 10;
#X connect 0 0 1 0;
#X connect 1 0 2 0;
#X connect 2 0 3 0;
#X connect 2 0 28 0;
#X connect 3 0 2 1;
#X connect 4 0 29 0;
#X connect 5 0 10 0;
#X connect 6 0 7 0;
#X connect 7 0 30 0;
#X connect 8 0 9 0;
#X connect 8 0 23 0;
#X connect 8 0 26 0;
#X connect 9 0 8 1;
#X connect 10 0 8 0;
#X connect 11 0 6 0;
#X connect 11 1 12 0;
#X connect 11 2 13 0;
#X connect 11 3 14 0;
#X connect 11 4 15 0;
#X connect 11 5 16 0;
#X connect 11 6 17 0;
#X connect 11 7 18 0;
#X connect 11 8 19 0;
#X connect 11 9 20 0;
#X connect 12 0 7 0;
#X connect 13 0 7 0;
#X connect 14 0 7 0;
#X connect 15 0 7 0;
#X connect 16 0 7 0;
#X connect 17 0 7 0;
#X connect 18 0 7 0;
#X connect 19 0 7 0;
#X connect 20 0 7 0;
#X connect 22 0 24 0;
#X connect 23 0 11 0;
#X connect 24 0 6 0;
#X connect 24 1 12 0;
#X connect 24 2 13 0;
#X connect 24 3 14 0;
#X connect 24 4 15 0;
#X connect 24 5 16 0;
#X connect 24 6 17 0;
#X connect 24 7 18 0;
#X connect 24 8 19 0;
#X connect 24 9 20 0;
#X connect 24 10 25 0;
#X connect 25 0 23 1;
#X connect 28 0 4 0;
#X connect 29 0 5 1;
#X connect 29 0 5 0;
#X connect 30 0 21 0;
#X restore 750 116 pd ppsqt;
#X obj 750 96 r metapartition;
#X obj 750 137 s seqOffset;
#X obj 397 126 r seqOffset;
#N canvas 59 156 445 299 ppsqok 0;
#X floatatom 30 176 3 0 0 0 - - -, f 3;
#X floatatom 30 217 5 0 0 0 - - -, f 5;
#X obj 234 42 f;
#X obj 262 42 + 1;
#X obj 4 27 bng 15 250 50 0 empty empty empty 17 7 0 10 -262144 -1
-1;
#X obj 234 132 select 0 1 2 3 4 5 6 7 8 9;
#X floatatom 53 176 3 0 0 0 - - -, f 3;
#X floatatom 76 177 3 0 0 0 - - -, f 3;
#X floatatom 99 177 3 0 0 0 - - -, f 3;
#X floatatom 122 178 3 0 0 0 - - -, f 3;
#X floatatom 145 178 3 0 0 0 - - -, f 3;
#X floatatom 168 179 3 0 0 0 - - -, f 3;
#X floatatom 191 179 3 0 0 0 - - -, f 3;
#X floatatom 214 179 3 0 0 0 - - -, f 3;
#X floatatom 237 179 3 0 0 0 - - -, f 3;
#X obj 30 242 outlet;
#X obj 4 5 inlet;
#X obj 30 48 inlet;
#X obj 234 108 %;
#X obj 30 70 unpack 0 0 0 0 0 0 0 0 0 0 0;
#X floatatom 249 87 3 0 0 0 - - -, f 3;
#X connect 0 0 1 0;
#X connect 1 0 15 0;
#X connect 2 0 3 0;
#X connect 2 0 18 0;
#X connect 3 0 2 1;
#X connect 4 0 2 0;
#X connect 5 0 0 0;
#X connect 5 1 6 0;
#X connect 5 2 7 0;
#X connect 5 3 8 0;
#X connect 5 4 9 0;
#X connect 5 5 10 0;
#X connect 5 6 11 0;
#X connect 5 7 12 0;
#X connect 5 8 13 0;
#X connect 5 9 14 0;
#X connect 6 0 1 0;
#X connect 7 0 1 0;
#X connect 8 0 1 0;
#X connect 9 0 1 0;
#X connect 10 0 1 0;
#X connect 11 0 1 0;
#X connect 12 0 1 0;
#X connect 13 0 1 0;
#X connect 14 0 1 0;
#X connect 16 0 4 0;
#X connect 17 0 19 0;
#X connect 18 0 5 0;
#X connect 19 0 0 0;
#X connect 19 1 6 0;
#X connect 19 2 7 0;
#X connect 19 3 8 0;
#X connect 19 4 9 0;
#X connect 19 5 10 0;
#X connect 19 6 11 0;
#X connect 19 7 12 0;
#X connect 19 8 13 0;
#X connect 19 9 14 0;
#X connect 19 10 20 0;
#X connect 20 0 18 1;
#X restore 872 192 pd ppsqok;
#X obj 872 234 +;
#X obj 923 170 r metapartition;
#X obj 887 214 r seqOffset;
#X obj 382 83 bng 15 250 50 0 empty empty empty 17 7 0 10 -262144 -1
-1;
#X obj 938 361 / 1;
#X floatatom 306 204 5 0 0 0 - - -, f 5;
#X connect 0 0 1 0;
#X connect 0 1 1 1;
#X connect 0 2 1 2;
#X connect 0 3 1 3;
#X connect 0 4 1 4;
#X connect 0 5 1 5;
#X connect 0 6 1 6;
#X connect 0 7 1 7;
#X connect 0 8 1 8;
#X connect 0 9 1 9;
#X connect 0 10 1 10;
#X connect 0 11 1 11;
#X connect 0 12 1 12;
#X connect 0 13 1 13;
#X connect 2 0 3 0;
#X connect 2 1 4 0;
#X connect 2 2 5 0;
#X connect 2 3 6 0;
#X connect 2 4 7 0;
#X connect 2 5 8 0;
#X connect 2 6 9 0;
#X connect 2 7 10 0;
#X connect 3 0 11 0;
#X connect 4 0 11 1;
#X connect 5 0 11 2;
#X connect 6 0 11 3;
#X connect 7 0 11 4;
#X connect 8 0 11 5;
#X connect 9 0 11 6;
#X connect 10 0 11 7;
#X connect 12 0 31 0;
#X connect 12 1 32 0;
#X connect 12 2 64 0;
#X connect 16 0 23 0;
#X connect 17 0 26 0;
#X connect 18 0 15 0;
#X connect 18 0 15 1;
#X connect 19 0 18 1;
#X connect 20 0 19 0;
#X connect 21 0 23 1;
#X connect 22 0 21 0;
#X connect 23 0 37 0;
#X connect 24 0 26 1;
#X connect 25 0 24 0;
#X connect 26 0 37 1;
#X connect 27 0 2 0;
#X connect 29 0 12 2;
#X connect 30 0 12 1;
#X connect 34 0 41 0;
#X connect 37 0 47 0;
#X connect 38 0 12 0;
#X connect 39 0 40 0;
#X connect 40 0 44 0;
#X connect 41 0 39 0;
#X connect 44 0 36 0;
#X connect 46 0 47 1;
#X connect 47 0 18 0;
#X connect 48 0 50 1;
#X connect 49 0 48 0;
#X connect 50 0 46 0;
#X connect 51 0 53 1;
#X connect 52 0 51 0;
#X connect 53 0 46 1;
#X connect 54 0 50 0;
#X connect 55 0 53 0;
#X connect 56 0 13 0;
#X connect 60 0 61 0;
#X connect 61 0 39 1;
#X connect 62 0 12 3;
#X connect 65 0 96 0;
#X connect 66 0 85 0;
#X connect 67 0 68 0;
#X connect 68 0 69 0;
#X connect 69 0 70 0;
#X connect 69 0 71 0;
#X connect 70 0 69 1;
#X connect 71 0 72 0;
#X connect 72 0 73 0;
#X connect 73 0 75 1;
#X connect 73 0 75 0;
#X connect 74 0 76 0;
#X connect 75 0 74 0;
#X connect 76 0 77 0;
#X connect 76 0 78 0;
#X connect 77 0 76 1;
#X connect 78 0 79 0;
#X connect 81 0 44 1;
#X connect 82 0 83 0;
#X connect 83 0 63 0;
#X connect 83 0 97 0;
#X connect 84 0 95 0;
#X connect 86 0 82 1;
#X connect 87 0 89 0;
#X connect 88 0 87 0;
#X connect 90 0 83 1;
#X connect 90 0 45 0;
#X connect 91 0 92 0;
#X connect 92 0 28 0;
#X connect 93 0 91 1;
#X connect 94 0 92 1;
#X connect 95 0 82 0;
#X connect 96 0 56 0;
